{
  "materials": [
    {
      "name": "15_-_Default",
      "pbrMetallicRoughness": {
        "baseColorTexture": {
          "index": 0,
          "texCoord": 0
        },
        "baseColorFactor": [
          1.0,
          1.0,
          1.0,
          1.0
        ],
        "metallicFactor": 0.099999994,
        "roughnessFactor": 1
      },
      "alphaMode": "OPAQUE"
    },
    {
      "name": "AM98_012_chrome_squares_fromVray",
      "pbrMetallicRoughness": {
        "baseColorTexture": {
          "index": 1,
          "texCoord": 0
        },
        "baseColorFactor": [
          1.0,
          1.0,
          1.0,
          1.0
        ],
        "metallicFactor": 0,
        "roughnessFactor": 1
      },
      "alphaMode": "OPAQUE"
    },
    {
      "name": "AM98_012_glass_orange_texture_fromVray_alpha",
      "pbrMetallicRoughness": {
        "baseColorTexture": {
          "index": 2,
          "texCoord": 0
        },
        "baseColorFactor": [
          1.0,
          1.0,
          1.0,
          0.3921569
        ],
        "metallicFactor": 0,
        "roughnessFactor": 0.9019608
      },
      "alphaMode": "OPAQUE"
    },
    {
      "name": "AM98_012_chrome_stripes_fromVray",
      "pbrMetallicRoughness": {
        "baseColorTexture": {
          "index": 3,
          "texCoord": 0
        },
        "baseColorFactor": [
          1.0,
          1.0,
          1.0,
          1.0
        ],
        "metallicFactor": 0,
        "roughnessFactor": 1
      },
      "alphaMode": "OPAQUE"
    },
    {
      "name": "AM98_012_glass_white_texture_fromVray_alpha",
      "pbrMetallicRoughness": {
        "baseColorTexture": {
          "index": 4,
          "texCoord": 0
        },
        "baseColorFactor": [
          1.0,
          1.0,
          1.0,
          0.501960754
        ],
        "metallicFactor": 0,
        "roughnessFactor": 1
      },
      "alphaMode": "OPAQUE"
    },
    {
      "name": "AM98_012_orange_light_fromVray",
      "pbrMetallicRoughness": {
        "baseColorTexture": {
          "index": 2,
          "texCoord": 0
        },
        "baseColorFactor": [
          1.0,
          1.0,
          1.0,
          1.0
        ],
        "metallicFactor": 0,
        "roughnessFactor": 1
      },
      "alphaMode": "OPAQUE"
    },
    {
      "name": "AM98_012_register_plate_fromVray",
      "pbrMetallicRoughness": {
        "baseColorTexture": {
          "index": 5,
          "texCoord": 0
        },
        "baseColorFactor": [
          1.0,
          1.0,
          1.0,
          1.0
        ],
        "metallicFactor": 0,
        "roughnessFactor": 0.8039216
      },
      "alphaMode": "OPAQUE"
    },
    {
      "name": "AM98_012_tire_fromVray",
      "pbrMetallicRoughness": {
        "baseColorTexture": {
          "index": 6,
          "texCoord": 0
        },
        "baseColorFactor": [
          1.0,
          1.0,
          1.0,
          1.0
        ],
        "metallicFactor": 0,
        "roughnessFactor": 1
      },
      "alphaMode": "OPAQUE"
    },
    {
      "name": "AM98_012_white_light_fromVray",
      "pbrMetallicRoughness": {
        "baseColorTexture": {
          "index": 4,
          "texCoord": 0
        },
        "baseColorFactor": [
          1.0,
          1.0,
          1.0,
          1.0
        ],
        "metallicFactor": 0,
        "roughnessFactor": 1
      },
      "alphaMode": "OPAQUE"
    },
    {
      "name": "03_-_Default",
      "pbrMetallicRoughness": {
        "baseColorTexture": {
          "index": 7,
          "texCoord": 0
        },
        "baseColorFactor": [
          1.0,
          1.0,
          1.0,
          1.0
        ],
        "metallicFactor": 0.099999994,
        "roughnessFactor": 1
      },
      "alphaMode": "OPAQUE"
    },
    {
      "name": "Standard_2汽车_12.bmp",
      "occlusionTexture": {
        "index": 8,
        "texCoord": 1
      },
      "pbrMetallicRoughness": {
        "baseColorTexture": {
          "index": 9,
          "texCoord": 0
        },
        "baseColorFactor": [
          1.0,
          1.0,
          1.0,
          1.0
        ],
        "metallicFactor": 0,
        "roughnessFactor": 1
      },
      "alphaMode": "OPAQUE"
    },
    {
      "name": "05_-_Default_alpha",
      "pbrMetallicRoughness": {
        "baseColorFactor": [
          0.5882353,
          0.5882353,
          0.5882353,
          0.799999952
        ],
        "metallicFactor": 0.099999994,
        "roughnessFactor": 0.9
      },
      "alphaMode": "OPAQUE"
    },
    {
      "name": "AM98_012_black_plastic_fromVray",
      "pbrMetallicRoughness": {
        "baseColorFactor": [
          0.5019608,
          0.109803945,
          0.109803945,
          1.0
        ],
        "metallicFactor": 0,
        "roughnessFactor": 0.882352948
      },
      "alphaMode": "OPAQUE"
    },
    {
      "name": "AM98_012_glass2_fromVray_alpha",
      "pbrMetallicRoughness": {
        "baseColorFactor": [
          0.392156959,
          0.392156959,
          0.392156959,
          0.8235295
        ],
        "metallicFactor": 0,
        "roughnessFactor": 0.9
      },
      "alphaMode": "OPAQUE"
    },
    {
      "name": "AM98_012_glass_red_fromVray_alpha",
      "pbrMetallicRoughness": {
        "baseColorFactor": [
          0.5019608,
          0.117647082,
          0.109803945,
          0.375163376
        ],
        "metallicFactor": 0,
        "roughnessFactor": 0.9019608
      },
      "alphaMode": "OPAQUE"
    }
  ],
  "images": [
    {
      "uri": "8CED201697B16943F9F69B3D4EF8315A.jpg"
    },
    {
      "uri": "DA8818ADB4F5A4FC5AF7AB7C05074DBC.jpg"
    },
    {
      "uri": "9D6B86A8DF5285A06A3E0327925067D7.jpg"
    },
    {
      "uri": "E4704232A116B43FBD81A29BE955CB12.jpg"
    },
    {
      "uri": "E616A77F8F2878A70FEF5DFE00B81C6A.jpg"
    },
    {
      "uri": "A2503B938AEBB00FC8CBCD46785E9BCC.jpg"
    },
    {
      "uri": "EFC788FD58EBFA1734116340FAE897F3.jpg"
    },
    {
      "uri": "EB3D4644103C3553CE0A954C8310C6EC.jpg"
    },
    {
      "uri": "F7D1E8D5AB0E839DA11B770364785F4F.jpg"
    },
    {
      "uri": "12F3CAE7308171CFE87AF52D057DF25A.jpg"
    }
  ],
  "textures": [
    {
      "name": "Archmodels_115_017_metal_02_color.jpg",
      "sampler": 0,
      "source": 0
    },
    {
      "name": "AM98_012_camper_taillight_glass_bump_f_png.jpg",
      "sampler": 0,
      "source": 1
    },
    {
      "name": "AM98_012_camper_light_orange_f_png.jpg",
      "sampler": 0,
      "source": 2
    },
    {
      "name": "AM98_012_camper_headlight_bump_f_png.jpg",
      "sampler": 0,
      "source": 3
    },
    {
      "name": "AM98_012_camper_light_white_f_png.jpg",
      "sampler": 0,
      "source": 4
    },
    {
      "name": "AM98_001_ambulance_eu_register_plate_f_png.jpg",
      "sampler": 0,
      "source": 5
    },
    {
      "name": "AM98_012_camper_tire_f_png.jpg",
      "sampler": 0,
      "source": 6
    },
    {
      "name": "Archmodels_115_024_metal_bump.jpg",
      "sampler": 0,
      "source": 7
    },
    {
      "name": "汽车_12_f_bmp.jpg",
      "sampler": 0,
      "source": 8
    },
    {
      "name": "AM98_012_camper_left_f_png.jpg",
      "sampler": 0,
      "source": 9
    }
  ],
  "meshes": [
    {
      "name": "AM98_012_camper_brake_fl",
      "primitives": [
        {
          "material": 0,
          "mode": 4,
          "indices": 0,
          "attributes": {
            "NORMAL": 2,
            "POSITION": 1,
            "TEXCOORD_0": 3,
            "TEXCOORD_1": 4
          }
        }
      ]
    },
    {
      "name": "AM98_012_camper_rim_fl",
      "primitives": [
        {
          "material": 0,
          "mode": 4,
          "indices": 5,
          "attributes": {
            "NORMAL": 7,
            "POSITION": 6,
            "TEXCOORD_0": 8,
            "TEXCOORD_1": 9
          }
        }
      ]
    },
    {
      "name": "对象003",
      "primitives": [
        {
          "material": 0,
          "mode": 4,
          "indices": 10,
          "attributes": {
            "NORMAL": 12,
            "POSITION": 11,
            "TEXCOORD_0": 13,
            "TEXCOORD_1": 14
          }
        }
      ]
    },
    {
      "name": "对象004",
      "primitives": [
        {
          "material": 0,
          "mode": 4,
          "indices": 15,
          "attributes": {
            "NORMAL": 17,
            "POSITION": 16,
            "TEXCOORD_0": 18,
            "TEXCOORD_1": 19
          }
        }
      ]
    },
    {
      "name": "对象005",
      "primitives": [
        {
          "material": 0,
          "mode": 4,
          "indices": 20,
          "attributes": {
            "COLOR_0": 23,
            "NORMAL": 22,
            "POSITION": 21,
            "TEXCOORD_0": 24,
            "TEXCOORD_1": 25
          }
        }
      ]
    },
    {
      "name": "对象007",
      "primitives": [
        {
          "material": 0,
          "mode": 4,
          "indices": 26,
          "attributes": {
            "COLOR_0": 29,
            "NORMAL": 28,
            "POSITION": 27,
            "TEXCOORD_0": 30,
            "TEXCOORD_1": 31
          }
        }
      ]
    },
    {
      "name": "AM98_012_camper_chrome_squares",
      "primitives": [
        {
          "material": 1,
          "mode": 4,
          "indices": 32,
          "attributes": {
            "NORMAL": 34,
            "POSITION": 33,
            "TEXCOORD_0": 35,
            "TEXCOORD_1": 36
          }
        }
      ]
    },
    {
      "name": "AM98_012_camper_orange_liight",
      "primitives": [
        {
          "material": 2,
          "mode": 4,
          "indices": 37,
          "attributes": {
            "NORMAL": 39,
            "POSITION": 38,
            "TEXCOORD_0": 40,
            "TEXCOORD_1": 41
          }
        }
      ]
    },
    {
      "name": "AM98_012_camper_chrome_stripes",
      "primitives": [
        {
          "material": 3,
          "mode": 4,
          "indices": 42,
          "attributes": {
            "NORMAL": 44,
            "POSITION": 43,
            "TEXCOORD_0": 45,
            "TEXCOORD_1": 46
          }
        }
      ]
    },
    {
      "name": "AM98_012_camper_blinkers",
      "primitives": [
        {
          "material": 4,
          "mode": 4,
          "indices": 47,
          "attributes": {
            "NORMAL": 49,
            "POSITION": 48,
            "TEXCOORD_0": 50,
            "TEXCOORD_1": 51
          }
        }
      ]
    },
    {
      "name": "AM98_012_camper_orange",
      "primitives": [
        {
          "material": 5,
          "mode": 4,
          "indices": 52,
          "attributes": {
            "NORMAL": 54,
            "POSITION": 53,
            "TEXCOORD_0": 55,
            "TEXCOORD_1": 56
          }
        }
      ]
    },
    {
      "name": "AM98_012_camper_register_plate",
      "primitives": [
        {
          "material": 6,
          "mode": 4,
          "indices": 57,
          "attributes": {
            "NORMAL": 59,
            "POSITION": 58,
            "TEXCOORD_0": 60,
            "TEXCOORD_1": 61
          }
        }
      ]
    },
    {
      "name": "AM98_012_camper_tire_fl",
      "primitives": [
        {
          "material": 7,
          "mode": 4,
          "indices": 62,
          "attributes": {
            "NORMAL": 64,
            "POSITION": 63,
            "TEXCOORD_0": 65,
            "TEXCOORD_1": 66
          }
        }
      ]
    },
    {
      "name": "AM98_012_camper_white_light",
      "primitives": [
        {
          "material": 8,
          "mode": 4,
          "indices": 67,
          "attributes": {
            "NORMAL": 69,
            "POSITION": 68,
            "TEXCOORD_0": 70,
            "TEXCOORD_1": 71
          }
        }
      ]
    },
    {
      "name": "对象001",
      "primitives": [
        {
          "material": 9,
          "mode": 4,
          "indices": 72,
          "attributes": {
            "NORMAL": 74,
            "POSITION": 73,
            "TEXCOORD_0": 75,
            "TEXCOORD_1": 76
          }
        }
      ]
    },
    {
      "name": "对象002",
      "primitives": [
        {
          "material": 10,
          "mode": 4,
          "indices": 77,
          "attributes": {
            "COLOR_0": 80,
            "NORMAL": 79,
            "POSITION": 78,
            "TEXCOORD_0": 81,
            "TEXCOORD_1": 82
          }
        }
      ]
    },
    {
      "name": "AM98_012_camper_glass",
      "primitives": [
        {
          "material": 11,
          "mode": 4,
          "indices": 83,
          "attributes": {
            "NORMAL": 85,
            "POSITION": 84,
            "TEXCOORD_0": 86,
            "TEXCOORD_1": 87
          }
        }
      ]
    },
    {
      "name": "AM98_012_camper_red",
      "primitives": [
        {
          "material": 12,
          "mode": 4,
          "indices": 88,
          "attributes": {
            "NORMAL": 90,
            "POSITION": 89,
            "TEXCOORD_0": 91,
            "TEXCOORD_1": 92
          }
        }
      ]
    },
    {
      "name": "AM98_012_camper_taillight_glass",
      "primitives": [
        {
          "material": 13,
          "mode": 4,
          "indices": 93,
          "attributes": {
            "NORMAL": 95,
            "POSITION": 94,
            "TEXCOORD_0": 96,
            "TEXCOORD_1": 97
          }
        },
        {
          "material": 14,
          "mode": 4,
          "indices": 98,
          "attributes": {
            "NORMAL": 100,
            "POSITION": 99,
            "TEXCOORD_0": 101,
            "TEXCOORD_1": 102
          }
        }
      ]
    }
  ],
  "buffers": [
    {
      "byteLength": 7585692,
      "uri": "405888E54B63081B1432A8DE990D3BD9.bin"
    }
  ],
  "bufferViews": [
    {
      "buffer": 0,
      "target": 34963,
      "byteLength": 191082,
      "byteOffset": 0
    },
    {
      "buffer": 0,
      "target": 34962,
      "byteLength": 235452,
      "byteOffset": 191084
    },
    {
      "buffer": 0,
      "target": 34962,
      "byteLength": 235452,
      "byteOffset": 426536
    },
    {
      "buffer": 0,
      "target": 34962,
      "byteLength": 156968,
      "byteOffset": 661988
    },
    {
      "buffer": 0,
      "target": 34962,
      "byteLength": 156968,
      "byteOffset": 818956
    },
    {
      "buffer": 0,
      "target": 34963,
      "byteLength": 182808,
      "byteOffset": 975924
    },
    {
      "buffer": 0,
      "target": 34962,
      "byteLength": 288984,
      "byteOffset": 1158732
    },
    {
      "buffer": 0,
      "target": 34962,
      "byteLength": 288984,
      "byteOffset": 1447716
    },
    {
      "buffer": 0,
      "target": 34962,
      "byteLength": 192656,
      "byteOffset": 1736700
    },
    {
      "buffer": 0,
      "target": 34962,
      "byteLength": 192656,
      "byteOffset": 1929356
    },
    {
      "buffer": 0,
      "target": 34963,
      "byteLength": 54,
      "byteOffset": 2122012
    },
    {
      "buffer": 0,
      "target": 34962,
      "byteLength": 192,
      "byteOffset": 2122068
    },
    {
      "buffer": 0,
      "target": 34962,
      "byteLength": 192,
      "byteOffset": 2122260
    },
    {
      "buffer": 0,
      "target": 34962,
      "byteLength": 128,
      "byteOffset": 2122452
    },
    {
      "buffer": 0,
      "target": 34962,
      "byteLength": 128,
      "byteOffset": 2122580
    },
    {
      "buffer": 0,
      "target": 34963,
      "byteLength": 54,
      "byteOffset": 2122708
    },
    {
      "buffer": 0,
      "target": 34962,
      "byteLength": 180,
      "byteOffset": 2122764
    },
    {
      "buffer": 0,
      "target": 34962,
      "byteLength": 180,
      "byteOffset": 2122944
    },
    {
      "buffer": 0,
      "target": 34962,
      "byteLength": 120,
      "byteOffset": 2123124
    },
    {
      "buffer": 0,
      "target": 34962,
      "byteLength": 120,
      "byteOffset": 2123244
    },
    {
      "buffer": 0,
      "target": 34963,
      "byteLength": 96300,
      "byteOffset": 2123364
    },
    {
      "buffer": 0,
      "target": 34962,
      "byteLength": 181152,
      "byteOffset": 2219664
    },
    {
      "buffer": 0,
      "target": 34962,
      "byteLength": 181152,
      "byteOffset": 2400816
    },
    {
      "buffer": 0,
      "target": 34962,
      "byteLength": 241536,
      "byteOffset": 2581968
    },
    {
      "buffer": 0,
      "target": 34962,
      "byteLength": 120768,
      "byteOffset": 2823504
    },
    {
      "buffer": 0,
      "target": 34962,
      "byteLength": 120768,
      "byteOffset": 2944272
    },
    {
      "buffer": 0,
      "target": 34963,
      "byteLength": 11616,
      "byteOffset": 3065040
    },
    {
      "buffer": 0,
      "target": 34962,
      "byteLength": 19992,
      "byteOffset": 3076656
    },
    {
      "buffer": 0,
      "target": 34962,
      "byteLength": 19992,
      "byteOffset": 3096648
    },
    {
      "buffer": 0,
      "target": 34962,
      "byteLength": 26656,
      "byteOffset": 3116640
    },
    {
      "buffer": 0,
      "target": 34962,
      "byteLength": 13328,
      "byteOffset": 3143296
    },
    {
      "buffer": 0,
      "target": 34962,
      "byteLength": 13328,
      "byteOffset": 3156624
    },
    {
      "buffer": 0,
      "target": 34963,
      "byteLength": 37584,
      "byteOffset": 3169952
    },
    {
      "buffer": 0,
      "target": 34962,
      "byteLength": 42360,
      "byteOffset": 3207536
    },
    {
      "buffer": 0,
      "target": 34962,
      "byteLength": 42360,
      "byteOffset": 3249896
    },
    {
      "buffer": 0,
      "target": 34962,
      "byteLength": 28240,
      "byteOffset": 3292256
    },
    {
      "buffer": 0,
      "target": 34962,
      "byteLength": 28240,
      "byteOffset": 3320496
    },
    {
      "buffer": 0,
      "target": 34963,
      "byteLength": 3072,
      "byteOffset": 3348736
    },
    {
      "buffer": 0,
      "target": 34962,
      "byteLength": 3120,
      "byteOffset": 3351808
    },
    {
      "buffer": 0,
      "target": 34962,
      "byteLength": 3120,
      "byteOffset": 3354928
    },
    {
      "buffer": 0,
      "target": 34962,
      "byteLength": 2080,
      "byteOffset": 3358048
    },
    {
      "buffer": 0,
      "target": 34962,
      "byteLength": 2080,
      "byteOffset": 3360128
    },
    {
      "buffer": 0,
      "target": 34963,
      "byteLength": 61284,
      "byteOffset": 3362208
    },
    {
      "buffer": 0,
      "target": 34962,
      "byteLength": 71976,
      "byteOffset": 3423492
    },
    {
      "buffer": 0,
      "target": 34962,
      "byteLength": 71976,
      "byteOffset": 3495468
    },
    {
      "buffer": 0,
      "target": 34962,
      "byteLength": 47984,
      "byteOffset": 3567444
    },
    {
      "buffer": 0,
      "target": 34962,
      "byteLength": 47984,
      "byteOffset": 3615428
    },
    {
      "buffer": 0,
      "target": 34963,
      "byteLength": 10800,
      "byteOffset": 3663412
    },
    {
      "buffer": 0,
      "target": 34962,
      "byteLength": 12672,
      "byteOffset": 3674212
    },
    {
      "buffer": 0,
      "target": 34962,
      "byteLength": 12672,
      "byteOffset": 3686884
    },
    {
      "buffer": 0,
      "target": 34962,
      "byteLength": 8448,
      "byteOffset": 3699556
    },
    {
      "buffer": 0,
      "target": 34962,
      "byteLength": 8448,
      "byteOffset": 3708004
    },
    {
      "buffer": 0,
      "target": 34963,
      "byteLength": 6216,
      "byteOffset": 3716452
    },
    {
      "buffer": 0,
      "target": 34962,
      "byteLength": 7680,
      "byteOffset": 3722668
    },
    {
      "buffer": 0,
      "target": 34962,
      "byteLength": 7680,
      "byteOffset": 3730348
    },
    {
      "buffer": 0,
      "target": 34962,
      "byteLength": 5120,
      "byteOffset": 3738028
    },
    {
      "buffer": 0,
      "target": 34962,
      "byteLength": 5120,
      "byteOffset": 3743148
    },
    {
      "buffer": 0,
      "target": 34963,
      "byteLength": 6432,
      "byteOffset": 3748268
    },
    {
      "buffer": 0,
      "target": 34962,
      "byteLength": 6816,
      "byteOffset": 3754700
    },
    {
      "buffer": 0,
      "target": 34962,
      "byteLength": 6816,
      "byteOffset": 3761516
    },
    {
      "buffer": 0,
      "target": 34962,
      "byteLength": 4544,
      "byteOffset": 3768332
    },
    {
      "buffer": 0,
      "target": 34962,
      "byteLength": 4544,
      "byteOffset": 3772876
    },
    {
      "buffer": 0,
      "target": 34963,
      "byteLength": 26880,
      "byteOffset": 3777420
    },
    {
      "buffer": 0,
      "target": 34962,
      "byteLength": 29712,
      "byteOffset": 3804300
    },
    {
      "buffer": 0,
      "target": 34962,
      "byteLength": 29712,
      "byteOffset": 3834012
    },
    {
      "buffer": 0,
      "target": 34962,
      "byteLength": 19808,
      "byteOffset": 3863724
    },
    {
      "buffer": 0,
      "target": 34962,
      "byteLength": 19808,
      "byteOffset": 3883532
    },
    {
      "buffer": 0,
      "target": 34963,
      "byteLength": 5604,
      "byteOffset": 3903340
    },
    {
      "buffer": 0,
      "target": 34962,
      "byteLength": 6036,
      "byteOffset": 3908944
    },
    {
      "buffer": 0,
      "target": 34962,
      "byteLength": 6036,
      "byteOffset": 3914980
    },
    {
      "buffer": 0,
      "target": 34962,
      "byteLength": 4024,
      "byteOffset": 3921016
    },
    {
      "buffer": 0,
      "target": 34962,
      "byteLength": 4024,
      "byteOffset": 3925040
    },
    {
      "buffer": 0,
      "target": 34963,
      "byteLength": 188496,
      "byteOffset": 3929064
    },
    {
      "buffer": 0,
      "target": 34962,
      "byteLength": 292020,
      "byteOffset": 4117560
    },
    {
      "buffer": 0,
      "target": 34962,
      "byteLength": 292020,
      "byteOffset": 4409580
    },
    {
      "buffer": 0,
      "target": 34962,
      "byteLength": 194680,
      "byteOffset": 4701600
    },
    {
      "buffer": 0,
      "target": 34962,
      "byteLength": 194680,
      "byteOffset": 4896280
    },
    {
      "buffer": 0,
      "target": 34963,
      "byteLength": 244788,
      "byteOffset": 5090960
    },
    {
      "buffer": 0,
      "target": 34962,
      "byteLength": 417900,
      "byteOffset": 5335748
    },
    {
      "buffer": 0,
      "target": 34962,
      "byteLength": 417900,
      "byteOffset": 5753648
    },
    {
      "buffer": 0,
      "target": 34962,
      "byteLength": 557200,
      "byteOffset": 6171548
    },
    {
      "buffer": 0,
      "target": 34962,
      "byteLength": 278600,
      "byteOffset": 6728748
    },
    {
      "buffer": 0,
      "target": 34962,
      "byteLength": 278600,
      "byteOffset": 7007348
    },
    {
      "buffer": 0,
      "target": 34963,
      "byteLength": 50256,
      "byteOffset": 7285948
    },
    {
      "buffer": 0,
      "target": 34962,
      "byteLength": 61020,
      "byteOffset": 7336204
    },
    {
      "buffer": 0,
      "target": 34962,
      "byteLength": 61020,
      "byteOffset": 7397224
    },
    {
      "buffer": 0,
      "target": 34962,
      "byteLength": 40680,
      "byteOffset": 7458244
    },
    {
      "buffer": 0,
      "target": 34962,
      "byteLength": 40680,
      "byteOffset": 7498924
    },
    {
      "buffer": 0,
      "target": 34963,
      "byteLength": 288,
      "byteOffset": 7539604
    },
    {
      "buffer": 0,
      "target": 34962,
      "byteLength": 456,
      "byteOffset": 7539892
    },
    {
      "buffer": 0,
      "target": 34962,
      "byteLength": 456,
      "byteOffset": 7540348
    },
    {
      "buffer": 0,
      "target": 34962,
      "byteLength": 304,
      "byteOffset": 7540804
    },
    {
      "buffer": 0,
      "target": 34962,
      "byteLength": 304,
      "byteOffset": 7541108
    },
    {
      "buffer": 0,
      "target": 34963,
      "byteLength": 600,
      "byteOffset": 7541412
    },
    {
      "buffer": 0,
      "target": 34962,
      "byteLength": 1248,
      "byteOffset": 7542012
    },
    {
      "buffer": 0,
      "target": 34962,
      "byteLength": 1248,
      "byteOffset": 7543260
    },
    {
      "buffer": 0,
      "target": 34962,
      "byteLength": 832,
      "byteOffset": 7544508
    },
    {
      "buffer": 0,
      "target": 34962,
      "byteLength": 832,
      "byteOffset": 7545340
    },
    {
      "buffer": 0,
      "target": 34963,
      "byteLength": 7200,
      "byteOffset": 7546172
    },
    {
      "buffer": 0,
      "target": 34962,
      "byteLength": 9696,
      "byteOffset": 7553372
    },
    {
      "buffer": 0,
      "target": 34962,
      "byteLength": 9696,
      "byteOffset": 7563068
    },
    {
      "buffer": 0,
      "target": 34962,
      "byteLength": 6464,
      "byteOffset": 7572764
    },
    {
      "buffer": 0,
      "target": 34962,
      "byteLength": 6464,
      "byteOffset": 7579228
    }
  ],
  "accessors": [
    {
      "componentType": 5123,
      "type": "SCALAR",
      "bufferView": 0,
      "byteOffset": 0,
      "count": 95541
    },
    {
      "componentType": 5126,
      "type": "VEC3",
      "bufferView": 1,
      "byteOffset": 0,
      "count": 19621,
      "min": [
        -2.25563955307007,
        -0.933499336242676,
        -0.16487592458725
      ],
      "max": [
        0.395954728126526,
        5.93179512023926,
        2.37342596054077
      ]
    },
    {
      "componentType": 5126,
      "type": "VEC3",
      "bufferView": 2,
      "byteOffset": 0,
      "count": 19621
    },
    {
      "componentType": 5126,
      "type": "VEC2",
      "bufferView": 3,
      "byteOffset": 0,
      "count": 19621
    },
    {
      "componentType": 5126,
      "type": "VEC2",
      "bufferView": 4,
      "byteOffset": 0,
      "count": 19621
    },
    {
      "componentType": 5123,
      "type": "SCALAR",
      "bufferView": 5,
      "byteOffset": 0,
      "count": 91404
    },
    {
      "componentType": 5126,
      "type": "VEC3",
      "bufferView": 6,
      "byteOffset": 0,
      "count": 24082,
      "min": [
        -2.09936332702637,
        -0.532181978225708,
        -0.135140091180801
      ],
      "max": [
        0.137347728013992,
        5.96528100967407,
        2.69356513023376
      ]
    },
    {
      "componentType": 5126,
      "type": "VEC3",
      "bufferView": 7,
      "byteOffset": 0,
      "count": 24082
    },
    {
      "componentType": 5126,
      "type": "VEC2",
      "bufferView": 8,
      "byteOffset": 0,
      "count": 24082
    },
    {
      "componentType": 5126,
      "type": "VEC2",
      "bufferView": 9,
      "byteOffset": 0,
      "count": 24082
    },
    {
      "componentType": 5123,
      "type": "SCALAR",
      "bufferView": 10,
      "byteOffset": 0,
      "count": 27
    },
    {
      "componentType": 5126,
      "type": "VEC3",
      "bufferView": 11,
      "byteOffset": 0,
      "count": 16,
      "min": [
        -1.48352265357971,
        -0.413115620613098,
        0.416109621524811
      ],
      "max": [
        -1.48323607444763,
        5.82453870773315,
        2.63294696807861
      ]
    },
    {
      "componentType": 5126,
      "type": "VEC3",
      "bufferView": 12,
      "byteOffset": 0,
      "count": 16
    },
    {
      "componentType": 5126,
      "type": "VEC2",
      "bufferView": 13,
      "byteOffset": 0,
      "count": 16
    },
    {
      "componentType": 5126,
      "type": "VEC2",
      "bufferView": 14,
      "byteOffset": 0,
      "count": 16
    },
    {
      "componentType": 5123,
      "type": "SCALAR",
      "bufferView": 15,
      "byteOffset": 0,
      "count": 27
    },
    {
      "componentType": 5126,
      "type": "VEC3",
      "bufferView": 16,
      "byteOffset": 0,
      "count": 15,
      "min": [
        -1.49711191654205,
        -0.413115620613098,
        0.416109681129456
      ],
      "max": [
        -1.48352265357971,
        5.82453870773315,
        2.63294696807861
      ]
    },
    {
      "componentType": 5126,
      "type": "VEC3",
      "bufferView": 17,
      "byteOffset": 0,
      "count": 15
    },
    {
      "componentType": 5126,
      "type": "VEC2",
      "bufferView": 18,
      "byteOffset": 0,
      "count": 15
    },
    {
      "componentType": 5126,
      "type": "VEC2",
      "bufferView": 19,
      "byteOffset": 0,
      "count": 15
    },
    {
      "componentType": 5123,
      "type": "SCALAR",
      "bufferView": 20,
      "byteOffset": 0,
      "count": 48150
    },
    {
      "componentType": 5126,
      "type": "VEC3",
      "bufferView": 21,
      "byteOffset": 0,
      "count": 15096,
      "min": [
        -2.08506870269775,
        -0.398945569992065,
        -0.0512262582778931
      ],
      "max": [
        0.136587858200073,
        5.9150276184082,
        2.62219429016113
      ]
    },
    {
      "componentType": 5126,
      "type": "VEC3",
      "bufferView": 22,
      "byteOffset": 0,
      "count": 15096
    },
    {
      "componentType": 5126,
      "type": "VEC4",
      "bufferView": 23,
      "byteOffset": 0,
      "count": 15096
    },
    {
      "componentType": 5126,
      "type": "VEC2",
      "bufferView": 24,
      "byteOffset": 0,
      "count": 15096
    },
    {
      "componentType": 5126,
      "type": "VEC2",
      "bufferView": 25,
      "byteOffset": 0,
      "count": 15096
    },
    {
      "componentType": 5123,
      "type": "SCALAR",
      "bufferView": 26,
      "byteOffset": 0,
      "count": 5808
    },
    {
      "componentType": 5126,
      "type": "VEC3",
      "bufferView": 27,
      "byteOffset": 0,
      "count": 1666,
      "min": [
        -5.29758405685425,
        -0.526942014694214,
        0.305914521217346
      ],
      "max": [
        -3.11450147628784,
        1.42267680168152,
        1.846794962883
      ]
    },
    {
      "componentType": 5126,
      "type": "VEC3",
      "bufferView": 28,
      "byteOffset": 0,
      "count": 1666
    },
    {
      "componentType": 5126,
      "type": "VEC4",
      "bufferView": 29,
      "byteOffset": 0,
      "count": 1666
    },
    {
      "componentType": 5126,
      "type": "VEC2",
      "bufferView": 30,
      "byteOffset": 0,
      "count": 1666
    },
    {
      "componentType": 5126,
      "type": "VEC2",
      "bufferView": 31,
      "byteOffset": 0,
      "count": 1666
    },
    {
      "componentType": 5123,
      "type": "SCALAR",
      "bufferView": 32,
      "byteOffset": 0,
      "count": 18792
    },
    {
      "componentType": 5126,
      "type": "VEC3",
      "bufferView": 33,
      "byteOffset": 0,
      "count": 3530,
      "min": [
        -1.31266534328461,
        -3.37814807891846,
        0.588026165962219
      ],
      "max": [
        1.31266236305237,
        2.3560516834259,
        1.18883645534515
      ]
    },
    {
      "componentType": 5126,
      "type": "VEC3",
      "bufferView": 34,
      "byteOffset": 0,
      "count": 3530
    },
    {
      "componentType": 5126,
      "type": "VEC2",
      "bufferView": 35,
      "byteOffset": 0,
      "count": 3530
    },
    {
      "componentType": 5126,
      "type": "VEC2",
      "bufferView": 36,
      "byteOffset": 0,
      "count": 3530
    },
    {
      "componentType": 5123,
      "type": "SCALAR",
      "bufferView": 37,
      "byteOffset": 0,
      "count": 1536
    },
    {
      "componentType": 5126,
      "type": "VEC3",
      "bufferView": 38,
      "byteOffset": 0,
      "count": 260,
      "min": [
        -0.889696359634399,
        -2.50915360450745,
        1.23252427577972
      ],
      "max": [
        0.889694809913635,
        -2.50367736816406,
        1.28031551837921
      ]
    },
    {
      "componentType": 5126,
      "type": "VEC3",
      "bufferView": 39,
      "byteOffset": 0,
      "count": 260
    },
    {
      "componentType": 5126,
      "type": "VEC2",
      "bufferView": 40,
      "byteOffset": 0,
      "count": 260
    },
    {
      "componentType": 5126,
      "type": "VEC2",
      "bufferView": 41,
      "byteOffset": 0,
      "count": 260
    },
    {
      "componentType": 5123,
      "type": "SCALAR",
      "bufferView": 42,
      "byteOffset": 0,
      "count": 30642
    },
    {
      "componentType": 5126,
      "type": "VEC3",
      "bufferView": 43,
      "byteOffset": 0,
      "count": 5998,
      "min": [
        -0.919686079025269,
        -2.90694570541382,
        0.37691268324852
      ],
      "max": [
        0.919684588909149,
        -2.44510173797607,
        1.3454509973526
      ]
    },
    {
      "componentType": 5126,
      "type": "VEC3",
      "bufferView": 44,
      "byteOffset": 0,
      "count": 5998
    },
    {
      "componentType": 5126,
      "type": "VEC2",
      "bufferView": 45,
      "byteOffset": 0,
      "count": 5998
    },
    {
      "componentType": 5126,
      "type": "VEC2",
      "bufferView": 46,
      "byteOffset": 0,
      "count": 5998
    },
    {
      "componentType": 5123,
      "type": "SCALAR",
      "bufferView": 47,
      "byteOffset": 0,
      "count": 5400
    },
    {
      "componentType": 5126,
      "type": "VEC3",
      "bufferView": 48,
      "byteOffset": 0,
      "count": 1056,
      "min": [
        -1.32336378097534,
        -3.37875151634216,
        1.06728720664978
      ],
      "max": [
        1.32336068153381,
        -3.27748394012451,
        1.18942964076996
      ]
    },
    {
      "componentType": 5126,
      "type": "VEC3",
      "bufferView": 49,
      "byteOffset": 0,
      "count": 1056
    },
    {
      "componentType": 5126,
      "type": "VEC2",
      "bufferView": 50,
      "byteOffset": 0,
      "count": 1056
    },
    {
      "componentType": 5126,
      "type": "VEC2",
      "bufferView": 51,
      "byteOffset": 0,
      "count": 1056
    },
    {
      "componentType": 5123,
      "type": "SCALAR",
      "bufferView": 52,
      "byteOffset": 0,
      "count": 3108
    },
    {
      "componentType": 5126,
      "type": "VEC3",
      "bufferView": 53,
      "byteOffset": 0,
      "count": 640,
      "min": [
        -0.00493206270039082,
        -3.01618957519531,
        -0.0224999990314245
      ],
      "max": [
        2.24146938323975,
        1.43013834953308,
        0.705472469329834
      ]
    },
    {
      "componentType": 5126,
      "type": "VEC3",
      "bufferView": 54,
      "byteOffset": 0,
      "count": 640
    },
    {
      "componentType": 5126,
      "type": "VEC2",
      "bufferView": 55,
      "byteOffset": 0,
      "count": 640
    },
    {
      "componentType": 5126,
      "type": "VEC2",
      "bufferView": 56,
      "byteOffset": 0,
      "count": 640
    },
    {
      "componentType": 5123,
      "type": "SCALAR",
      "bufferView": 57,
      "byteOffset": 0,
      "count": 3216
    },
    {
      "componentType": 5126,
      "type": "VEC3",
      "bufferView": 58,
      "byteOffset": 0,
      "count": 568,
      "min": [
        -0.261507123708725,
        -6.88051557540894,
        -0.0570002794265747
      ],
      "max": [
        0.261507123708725,
        0.00487667042762041,
        0.13591043651104
      ]
    },
    {
      "componentType": 5126,
      "type": "VEC3",
      "bufferView": 59,
      "byteOffset": 0,
      "count": 568
    },
    {
      "componentType": 5126,
      "type": "VEC2",
      "bufferView": 60,
      "byteOffset": 0,
      "count": 568
    },
    {
      "componentType": 5126,
      "type": "VEC2",
      "bufferView": 61,
      "byteOffset": 0,
      "count": 568
    },
    {
      "componentType": 5123,
      "type": "SCALAR",
      "bufferView": 62,
      "byteOffset": 0,
      "count": 13440
    },
    {
      "componentType": 5126,
      "type": "VEC3",
      "bufferView": 63,
      "byteOffset": 0,
      "count": 2476,
      "min": [
        -1.99322295188904,
        -0.365095615386963,
        -0.365095734596252
      ],
      "max": [
        0.0312064494937658,
        4.17350101470947,
        0.36509570479393
      ]
    },
    {
      "componentType": 5126,
      "type": "VEC3",
      "bufferView": 64,
      "byteOffset": 0,
      "count": 2476
    },
    {
      "componentType": 5126,
      "type": "VEC2",
      "bufferView": 65,
      "byteOffset": 0,
      "count": 2476
    },
    {
      "componentType": 5126,
      "type": "VEC2",
      "bufferView": 66,
      "byteOffset": 0,
      "count": 2476
    },
    {
      "componentType": 5123,
      "type": "SCALAR",
      "bufferView": 67,
      "byteOffset": 0,
      "count": 2802
    },
    {
      "componentType": 5126,
      "type": "VEC3",
      "bufferView": 68,
      "byteOffset": 0,
      "count": 503,
      "min": [
        -1.13302528858185,
        -3.81575274467468,
        2.00343203544617
      ],
      "max": [
        1.06371736526489,
        -0.421523809432983,
        2.29895615577698
      ]
    },
    {
      "componentType": 5126,
      "type": "VEC3",
      "bufferView": 69,
      "byteOffset": 0,
      "count": 503
    },
    {
      "componentType": 5126,
      "type": "VEC2",
      "bufferView": 70,
      "byteOffset": 0,
      "count": 503
    },
    {
      "componentType": 5126,
      "type": "VEC2",
      "bufferView": 71,
      "byteOffset": 0,
      "count": 503
    },
    {
      "componentType": 5123,
      "type": "SCALAR",
      "bufferView": 72,
      "byteOffset": 0,
      "count": 94248
    },
    {
      "componentType": 5126,
      "type": "VEC3",
      "bufferView": 73,
      "byteOffset": 0,
      "count": 24335,
      "min": [
        -2.00333762168884,
        -0.211482614278793,
        -0.211482837796211
      ],
      "max": [
        0.0413212478160858,
        4.01988744735718,
        0.211482807993889
      ]
    },
    {
      "componentType": 5126,
      "type": "VEC3",
      "bufferView": 74,
      "byteOffset": 0,
      "count": 24335
    },
    {
      "componentType": 5126,
      "type": "VEC2",
      "bufferView": 75,
      "byteOffset": 0,
      "count": 24335
    },
    {
      "componentType": 5126,
      "type": "VEC2",
      "bufferView": 76,
      "byteOffset": 0,
      "count": 24335
    },
    {
      "componentType": 5123,
      "type": "SCALAR",
      "bufferView": 77,
      "byteOffset": 0,
      "count": 122394
    },
    {
      "componentType": 5126,
      "type": "VEC3",
      "bufferView": 78,
      "byteOffset": 0,
      "count": 34825,
      "min": [
        -2.1591854095459,
        -0.948818683624268,
        -0.0905018746852875
      ],
      "max": [
        0.136587858200073,
        5.90038108825684,
        2.74186229705811
      ]
    },
    {
      "componentType": 5126,
      "type": "VEC3",
      "bufferView": 79,
      "byteOffset": 0,
      "count": 34825
    },
    {
      "componentType": 5126,
      "type": "VEC4",
      "bufferView": 80,
      "byteOffset": 0,
      "count": 34825
    },
    {
      "componentType": 5126,
      "type": "VEC2",
      "bufferView": 81,
      "byteOffset": 0,
      "count": 34825
    },
    {
      "componentType": 5126,
      "type": "VEC2",
      "bufferView": 82,
      "byteOffset": 0,
      "count": 34825
    },
    {
      "componentType": 5123,
      "type": "SCALAR",
      "bufferView": 83,
      "byteOffset": 0,
      "count": 25128
    },
    {
      "componentType": 5126,
      "type": "VEC3",
      "bufferView": 84,
      "byteOffset": 0,
      "count": 5085,
      "min": [
        -1.13588809967041,
        -2.91331148147583,
        0.37691268324852
      ],
      "max": [
        1.13588607311249,
        3.6637556552887,
        2.71515464782715
      ]
    },
    {
      "componentType": 5126,
      "type": "VEC3",
      "bufferView": 85,
      "byteOffset": 0,
      "count": 5085
    },
    {
      "componentType": 5126,
      "type": "VEC2",
      "bufferView": 86,
      "byteOffset": 0,
      "count": 5085
    },
    {
      "componentType": 5126,
      "type": "VEC2",
      "bufferView": 87,
      "byteOffset": 0,
      "count": 5085
    },
    {
      "componentType": 5123,
      "type": "SCALAR",
      "bufferView": 88,
      "byteOffset": 0,
      "count": 144
    },
    {
      "componentType": 5126,
      "type": "VEC3",
      "bufferView": 89,
      "byteOffset": 0,
      "count": 38,
      "min": [
        -0.0445360168814659,
        -0.0162586681544781,
        -0.0436122305691242
      ],
      "max": [
        0.044545654207468,
        0.007150505669415,
        0.0423742271959782
      ]
    },
    {
      "componentType": 5126,
      "type": "VEC3",
      "bufferView": 90,
      "byteOffset": 0,
      "count": 38
    },
    {
      "componentType": 5126,
      "type": "VEC2",
      "bufferView": 91,
      "byteOffset": 0,
      "count": 38
    },
    {
      "componentType": 5126,
      "type": "VEC2",
      "bufferView": 92,
      "byteOffset": 0,
      "count": 38
    },
    {
      "componentType": 5123,
      "type": "SCALAR",
      "bufferView": 93,
      "byteOffset": 0,
      "count": 300
    },
    {
      "componentType": 5126,
      "type": "VEC3",
      "bufferView": 94,
      "byteOffset": 0,
      "count": 104,
      "min": [
        -1.08812415599823,
        2.35346913337708,
        0.712153136730194
      ],
      "max": [
        1.08808481693268,
        2.36020112037659,
        1.02899432182312
      ]
    },
    {
      "componentType": 5126,
      "type": "VEC3",
      "bufferView": 95,
      "byteOffset": 0,
      "count": 104
    },
    {
      "componentType": 5126,
      "type": "VEC2",
      "bufferView": 96,
      "byteOffset": 0,
      "count": 104
    },
    {
      "componentType": 5126,
      "type": "VEC2",
      "bufferView": 97,
      "byteOffset": 0,
      "count": 104
    },
    {
      "componentType": 5123,
      "type": "SCALAR",
      "bufferView": 98,
      "byteOffset": 0,
      "count": 3600
    },
    {
      "componentType": 5126,
      "type": "VEC3",
      "bufferView": 99,
      "byteOffset": 0,
      "count": 808,
      "min": [
        -1.10912346839905,
        2.28068065643311,
        0.590558886528015
      ],
      "max": [
        1.10912561416626,
        2.36156177520752,
        1.03831958770752
      ]
    },
    {
      "componentType": 5126,
      "type": "VEC3",
      "bufferView": 100,
      "byteOffset": 0,
      "count": 808
    },
    {
      "componentType": 5126,
      "type": "VEC2",
      "bufferView": 101,
      "byteOffset": 0,
      "count": 808
    },
    {
      "componentType": 5126,
      "type": "VEC2",
      "bufferView": 102,
      "byteOffset": 0,
      "count": 808
    }
  ],
  "nodes": [
    {
      "name": "RootNode",
      "translation": [
        0.0,
        0.0,
        0.0
      ],
      "rotation": [
        0.0,
        0.0,
        0.0,
        1.0
      ],
      "scale": [
        1.0,
        1.0,
        1.0
      ],
      "children": [
        1,
        2,
        3,
        4,
        5,
        6,
        7,
        8,
        9,
        10,
        11,
        12,
        13,
        14,
        15,
        16,
        17,
        18,
        19
      ]
    },
    {
      "name": "AM98_012_camper_brake_fl",
      "translation": [
        0.929843068122864,
        0.357565402984619,
        2.50617742538452
      ],
      "rotation": [
        -0.70710676908493,
        0.0,
        0.0,
        0.70710676908493
      ],
      "scale": [
        1.0,
        1.0,
        1.0
      ],
      "mesh": 0
    },
    {
      "name": "AM98_012_camper_rim_fl",
      "translation": [
        0.981009840965271,
        0.357508182525635,
        2.50615978240967
      ],
      "rotation": [
        -0.70710676908493,
        0.0,
        0.0,
        0.70710676908493
      ],
      "scale": [
        1.0,
        1.0,
        1.0
      ],
      "mesh": 1
    },
    {
      "name": "AM98_012_camper_chrome_squares",
      "translation": [
        2.01274201572232E-06,
        0.290784478187561,
        -1.09502148628235
      ],
      "rotation": [
        -0.70710676908493,
        0.0,
        0.0,
        0.70710676908493
      ],
      "scale": [
        1.0,
        1.0,
        1.0
      ],
      "mesh": 6
    },
    {
      "name": "AM98_012_camper_orange_liight",
      "translation": [
        1.68724329796532E-06,
        -0.00416767597198486,
        0.270219147205353
      ],
      "rotation": [
        -0.70710676908493,
        0.0,
        0.0,
        0.70710676908493
      ],
      "scale": [
        1.0,
        1.0,
        1.0
      ],
      "mesh": 7
    },
    {
      "name": "AM98_012_camper_chrome_stripes",
      "translation": [
        1.68724329796532E-06,
        -0.00416767597198486,
        0.270219147205353
      ],
      "rotation": [
        -0.70710676908493,
        0.0,
        0.0,
        0.70710676908493
      ],
      "scale": [
        1.0,
        1.0,
        1.0
      ],
      "mesh": 8
    },
    {
      "name": "AM98_012_camper_blinkers",
      "translation": [
        2.01274201572232E-06,
        0.290784478187561,
        -1.09502148628235
      ],
      "rotation": [
        -0.70710676908493,
        0.0,
        0.0,
        0.70710676908493
      ],
      "scale": [
        1.0,
        1.0,
        1.0
      ],
      "mesh": 9
    },
    {
      "name": "AM98_012_camper_glass",
      "translation": [
        1.68724329796532E-06,
        -0.00416767597198486,
        0.270219147205353
      ],
      "rotation": [
        -0.70710676908493,
        0.0,
        0.0,
        0.70710676908493
      ],
      "scale": [
        1.0,
        1.0,
        1.0
      ],
      "mesh": 16
    },
    {
      "name": "AM98_012_camper_orange",
      "translation": [
        -1.11826598644257,
        0.577166855335236,
        -1.99572587013245
      ],
      "rotation": [
        -0.70710676908493,
        0.0,
        0.0,
        0.70710676908493
      ],
      "scale": [
        1.0,
        1.0,
        1.0
      ],
      "mesh": 10
    },
    {
      "name": "AM98_012_camper_red",
      "translation": [
        -5.93570166529389E-06,
        0.774978220462799,
        3.41297912597656
      ],
      "rotation": [
        -0.70710676908493,
        0.0,
        0.0,
        0.70710676908493
      ],
      "scale": [
        1.0,
        1.0,
        1.0
      ],
      "mesh": 17
    },
    {
      "name": "AM98_012_camper_register_plate",
      "translation": [
        2.55035320151364E-06,
        0.428202390670776,
        -3.42139649391174
      ],
      "rotation": [
        -0.70710676908493,
        0.0,
        0.0,
        0.70710676908493
      ],
      "scale": [
        1.0,
        1.0,
        1.0
      ],
      "mesh": 11
    },
    {
      "name": "AM98_012_camper_taillight_glass",
      "translation": [
        2.01274201572232E-06,
        0.290784478187561,
        -1.09502148628235
      ],
      "rotation": [
        -0.70710676908493,
        0.0,
        0.0,
        0.70710676908493
      ],
      "scale": [
        1.0,
        1.0,
        1.0
      ],
      "mesh": 18
    },
    {
      "name": "AM98_012_camper_tire_fl",
      "translation": [
        0.981009840965271,
        0.357508182525635,
        2.50615978240967
      ],
      "rotation": [
        -0.70710676908493,
        0.0,
        0.0,
        0.70710676908493
      ],
      "scale": [
        1.0,
        1.0,
        1.0
      ],
      "mesh": 12
    },
    {
      "name": "AM98_012_camper_white_light",
      "translation": [
        2.01274201572232E-06,
        0.290784478187561,
        -1.09502148628235
      ],
      "rotation": [
        -0.70710676908493,
        0.0,
        0.0,
        0.70710676908493
      ],
      "scale": [
        1.0,
        1.0,
        1.0
      ],
      "mesh": 13
    },
    {
      "name": "对象001",
      "translation": [
        0.981009840965271,
        0.357508182525635,
        2.50615978240967
      ],
      "rotation": [
        -0.70710676908493,
        0.0,
        0.0,
        0.70710676908493
      ],
      "scale": [
        1.0,
        1.0,
        1.0
      ],
      "mesh": 14
    },
    {
      "name": "对象002",
      "translation": [
        0.981009840965271,
        0.357508182525635,
        2.50615978240967
      ],
      "rotation": [
        -0.70710676908493,
        0.0,
        0.0,
        0.70710676908493
      ],
      "scale": [
        1.0,
        1.0,
        1.0
      ],
      "mesh": 15
    },
    {
      "name": "对象003",
      "translation": [
        2.56622719764709,
        0.357508182525635,
        2.50615978240967
      ],
      "rotation": [
        -0.70710676908493,
        0.0,
        0.0,
        0.70710676908493
      ],
      "scale": [
        1.0,
        1.0,
        1.0
      ],
      "mesh": 2
    },
    {
      "name": "对象004",
      "translation": [
        0.454138994216919,
        0.357508182525635,
        2.50615978240967
      ],
      "rotation": [
        -0.70710676908493,
        0.0,
        0.0,
        0.70710676908493
      ],
      "scale": [
        1.0,
        1.0,
        1.0
      ],
      "mesh": 3
    },
    {
      "name": "对象005",
      "translation": [
        0.959776282310486,
        0.357508182525635,
        2.50615978240967
      ],
      "rotation": [
        -0.70710676908493,
        0.0,
        0.0,
        0.70710676908493
      ],
      "scale": [
        1.0,
        1.0,
        1.0
      ],
      "mesh": 4
    },
    {
      "name": "对象007",
      "translation": [
        4.2028112411499,
        0.357508182525635,
        2.50615978240967
      ],
      "rotation": [
        -0.70710676908493,
        0.0,
        0.0,
        0.70710676908493
      ],
      "scale": [
        1.0,
        1.0,
        1.0
      ],
      "mesh": 5
    }
  ],
  "asset": {
    "generator": "FBX2glTF",
    "version": "2.0"
  },
  "scene": 0,
  "scenes": [
    {
      "name": "Root Scene",
      "nodes": [
        0
      ]
    }
  ],
  "samplers": [
    {}
  ]
}
