<?xml version="1.0" standalone="no"?><!DOCTYPE svg PUBLIC "-//W3C//DTD SVG 1.1//EN" "http://www.w3.org/Graphics/SVG/1.1/DTD/svg11.dtd"><svg t="1697596158550" class="icon" viewBox="0 0 1024 1024" version="1.1" xmlns="http://www.w3.org/2000/svg" p-id="5205" xmlns:xlink="http://www.w3.org/1999/xlink" width="16" height="16"><path d="M877.9776 640.4096h-158.208l212.2752-262.144a65.7408 65.7408 0 0 0-9.5744-92.3136L618.8032 40.1408a65.6896 65.6896 0 0 0-92.2112 9.728l-427.52 527.872a65.7408 65.7408 0 0 0 9.5744 92.2624l23.4496 19.1488-64.768 73.9328a64.1024 64.1024 0 0 0 7.8848 92.5696l157.8496 127.744c27.9552 22.5792 68.864 19.4048 92.5696-7.7824l66.4576-76.0832 20.1216 16.2816c28.0576 22.5792 69.4784 18.4832 92.16-9.6768l162.2016-200.0384h211.3024v139.264h65.536V501.248h-65.536v139.1104h0.1024zM276.2752 932.6592c-0.3584 0.4096-1.2288 0.512-1.7408 0l-156.9792-127.232 65.792-75.1104 157.8496 127.744-64.9216 74.5984z m177.2544-67.84c-0.1024 0 0.1536 0 0 0l-303.616-245.8112 427.52-527.872 303.616 245.9648-427.52 527.7184z" p-id="5206"></path></svg>