# Blender v3.6.4 OBJ File: '无标题.blend'
# www.blender.org
mtllib weixing.mtl
o satellite.001
v 0.071232 -0.071453 -0.077229
v 0.003632 -0.007500 -0.012847
v 0.069754 -0.084547 -0.062812
v 0.073688 -0.081245 -0.085871
v 0.067730 -0.069799 -0.100534
v 0.065274 -0.060007 -0.091892
v 0.061065 -0.097296 -0.050835
v 0.072210 -0.094339 -0.071453
v 0.046486 -0.107759 -0.043121
v 0.063520 -0.107088 -0.059476
v 0.028239 -0.114343 -0.040846
v 0.048942 -0.117551 -0.051763
v 0.009100 -0.116046 -0.044355
v 0.030694 -0.124135 -0.049487
v -0.008016 -0.112608 -0.053114
v 0.011556 -0.125838 -0.052996
v -0.020504 -0.104554 -0.065790
v -0.005560 -0.122400 -0.061755
v -0.026462 -0.093108 -0.080453
v -0.018048 -0.114346 -0.074431
v -0.024984 -0.080014 -0.094870
v -0.024006 -0.102900 -0.089094
v -0.016294 -0.067265 -0.106847
v -0.022528 -0.089806 -0.103511
v -0.001716 -0.056802 -0.114560
v -0.013838 -0.077057 -0.115488
v 0.016532 -0.050218 -0.116836
v 0.000740 -0.066594 -0.123202
v 0.035670 -0.048515 -0.113327
v 0.018987 -0.060010 -0.125477
v 0.052786 -0.051952 -0.104568
v 0.038126 -0.058307 -0.121968
v 0.055242 -0.061744 -0.113209
v 0.069096 -0.082263 -0.086022
v 0.063698 -0.071893 -0.099307
v 0.067757 -0.094126 -0.072960
v 0.059884 -0.105676 -0.062109
v 0.046676 -0.115156 -0.055121
v 0.030144 -0.121121 -0.053059
v 0.012805 -0.122664 -0.056238
v -0.002703 -0.119549 -0.064174
v -0.014016 -0.112252 -0.075658
v -0.019415 -0.101882 -0.088942
v -0.018075 -0.090019 -0.102005
v -0.010202 -0.078469 -0.112856
v 0.003005 -0.068989 -0.119844
v 0.019538 -0.063024 -0.121906
v 0.036877 -0.061481 -0.118727
v 0.052384 -0.064595 -0.110791
v 0.066836 -0.073250 -0.078069
v 0.005590 -0.015309 -0.019739
v 0.061438 -0.062880 -0.091353
v 0.065497 -0.085113 -0.065007
v 0.057624 -0.096664 -0.054155
v 0.044416 -0.106143 -0.047167
v 0.027884 -0.112108 -0.045106
v 0.010544 -0.113651 -0.048285
v -0.004963 -0.110537 -0.056220
v -0.016277 -0.103239 -0.067705
v -0.021675 -0.092870 -0.080989
v -0.020335 -0.081006 -0.094051
v -0.012463 -0.069456 -0.104902
v 0.000745 -0.059977 -0.111891
v 0.017277 -0.054011 -0.113952
v 0.034617 -0.052468 -0.110773
v 0.050124 -0.055583 -0.102837
vt 0.447007 0.351259
vt 0.443388 0.491900
vt 0.439769 0.351259
vt 0.447007 0.332842
vt 0.454244 0.332842
vt 0.454244 0.351259
vt 0.436151 0.491900
vt 0.432532 0.351259
vt 0.439769 0.332842
vt 0.428913 0.491900
vt 0.425294 0.351259
vt 0.432532 0.332842
vt 0.421676 0.491900
vt 0.418057 0.351259
vt 0.425294 0.332842
vt 0.414438 0.491900
vt 0.410819 0.351259
vt 0.418057 0.332842
vt 0.407201 0.491900
vt 0.403582 0.351259
vt 0.410819 0.332842
vt 0.399963 0.491900
vt 0.396344 0.351259
vt 0.403582 0.332842
vt 0.392726 0.491900
vt 0.389107 0.351259
vt 0.396344 0.332842
vt 0.385488 0.491900
vt 0.381869 0.351259
vt 0.389107 0.332842
vt 0.378251 0.491900
vt 0.374632 0.351259
vt 0.381869 0.332842
vt 0.371013 0.491900
vt 0.367395 0.351259
vt 0.374632 0.332842
vt 0.363776 0.491900
vt 0.360157 0.351259
vt 0.367395 0.332842
vt 0.475957 0.351259
vt 0.472338 0.491900
vt 0.468719 0.351259
vt 0.360157 0.332842
vt 0.465101 0.491900
vt 0.461482 0.351259
vt 0.468719 0.332842
vt 0.475957 0.332842
vt 0.457863 0.491900
vt 0.461482 0.332842
vt 0.450626 0.491900
vt 0.447007 0.332842
vt 0.454244 0.332842
vt 0.439769 0.332842
vt 0.432532 0.332842
vt 0.425294 0.332842
vt 0.418057 0.332842
vt 0.410819 0.332842
vt 0.403582 0.332842
vt 0.396344 0.332842
vt 0.389107 0.332842
vt 0.381869 0.332842
vt 0.374632 0.332842
vt 0.367395 0.332842
vt 0.360157 0.332842
vt 0.468719 0.332842
vt 0.475957 0.332842
vt 0.461482 0.332842
vt 0.447007 0.349793
vt 0.450626 0.477213
vt 0.454244 0.349793
vt 0.439769 0.349793
vt 0.443388 0.477213
vt 0.432532 0.349793
vt 0.436151 0.477213
vt 0.425294 0.349793
vt 0.428913 0.477213
vt 0.418057 0.349793
vt 0.421676 0.477213
vt 0.410819 0.349793
vt 0.414438 0.477213
vt 0.403582 0.349793
vt 0.407201 0.477213
vt 0.396344 0.349793
vt 0.399963 0.477213
vt 0.389107 0.349793
vt 0.392726 0.477213
vt 0.381869 0.349793
vt 0.385488 0.477213
vt 0.374632 0.349793
vt 0.378251 0.477213
vt 0.367395 0.349793
vt 0.371013 0.477213
vt 0.360157 0.349793
vt 0.363776 0.477213
vt 0.475957 0.349793
vt 0.468719 0.349793
vt 0.472338 0.477213
vt 0.461482 0.349793
vt 0.465101 0.477213
vt 0.457863 0.477213
vn 0.9082 0.3783 0.1793
vn -0.1848 0.7369 0.6503
vn 0.8794 0.1236 0.4598
vn 0.8152 -0.3746 -0.4417
vn 0.7319 -0.2145 -0.6468
vn 0.7922 0.6009 -0.1059
vn 0.7104 -0.1244 0.6927
vn 0.7945 -0.5578 -0.2400
vn 0.4268 -0.3279 0.8428
vn 0.6730 -0.7361 -0.0725
vn 0.0718 -0.4560 0.8871
vn 0.4691 -0.8824 0.0354
vn -0.3005 -0.4892 0.8188
vn 0.2138 -0.9746 0.0672
vn -0.6334 -0.4223 0.6484
vn -0.0539 -0.9984 0.0181
vn -0.8763 -0.2656 0.4019
vn -0.2933 -0.9503 -0.1044
vn -0.9922 -0.0430 0.1166
vn -0.4680 -0.8376 -0.2817
vn -0.9635 0.2118 -0.1638
vn -0.5514 -0.6775 -0.4868
vn -0.7945 0.4598 -0.3968
vn -0.5307 -0.4944 -0.6885
vn -0.5109 0.6633 -0.5468
vn -0.4091 -0.3160 -0.8560
vn -0.1559 0.7914 -0.5911
vn -0.2052 -0.1697 -0.9639
vn 0.2164 0.8245 -0.5229
vn 0.0500 -0.0776 -0.9957
vn 0.5493 0.7576 -0.3525
vn 0.3178 -0.0537 -0.9466
vn 0.5572 -0.1019 -0.8241
vn -0.5513 -0.6776 -0.4867
vn 0.0501 -0.0776 -0.9957
vn 0.3177 -0.0538 -0.9466
vn 0.5572 -0.1018 -0.8241
vn 0.7318 -0.2145 -0.6468
vn 0.2137 -0.9746 0.0672
vn -0.9082 -0.3783 -0.1793
vn 0.1848 -0.7369 -0.6503
vn -0.7923 -0.6009 0.1059
vn -0.8794 -0.1236 -0.4598
vn -0.7104 0.1244 -0.6927
vn -0.4268 0.3280 -0.8428
vn -0.0718 0.4560 -0.8871
vn 0.3005 0.4892 -0.8188
vn 0.6334 0.4223 -0.6484
vn 0.8763 0.2656 -0.4019
vn 0.9922 0.0429 -0.1166
vn 0.9635 -0.2118 0.1638
vn 0.7945 -0.4597 0.3968
vn 0.5109 -0.6633 0.5469
vn 0.1559 -0.7914 0.5911
vn -0.2164 -0.8245 0.5229
vn -0.5493 -0.7576 0.3525
usemtl 材质.004
s 1
f 1/1/1 2/2/2 3/3/3
f 1/1/1 4/4/4 5/5/5 6/6/6
f 3/3/3 2/7/2 7/8/7
f 3/3/3 8/9/8 4/4/4 1/1/1
f 7/8/7 2/10/2 9/11/9
f 7/8/7 10/12/10 8/9/8 3/3/3
f 9/11/9 2/13/2 11/14/11
f 9/11/9 12/15/12 10/12/10 7/8/7
f 11/14/11 2/16/2 13/17/13
f 11/14/11 14/18/14 12/15/12 9/11/9
f 13/17/13 2/19/2 15/20/15
f 13/17/13 16/21/16 14/18/14 11/14/11
f 15/20/15 2/22/2 17/23/17
f 15/20/15 18/24/18 16/21/16 13/17/13
f 17/23/17 2/25/2 19/26/19
f 17/23/17 20/27/20 18/24/18 15/20/15
f 19/26/19 2/28/2 21/29/21
f 19/26/19 22/30/22 20/27/20 17/23/17
f 21/29/21 2/31/2 23/32/23
f 21/29/21 24/33/24 22/30/22 19/26/19
f 23/32/23 2/34/2 25/35/25
f 23/32/23 26/36/26 24/33/24 21/29/21
f 25/35/25 2/37/2 27/38/27
f 25/35/25 28/39/28 26/36/26 23/32/23
f 27/40/27 2/41/2 29/42/29
f 27/38/27 30/43/30 28/39/28 25/35/25
f 29/42/29 2/44/2 31/45/31
f 29/42/29 32/46/32 30/47/30 27/40/27
f 31/45/31 2/48/2 6/6/6
f 31/45/31 33/49/33 32/46/32 29/42/29
f 6/6/6 2/50/2 1/1/1
f 6/6/6 5/5/5 33/49/33 31/45/31
f 4/4/4 34/51/34 35/52/20 5/5/5
f 8/9/8 36/53/24 34/51/34 4/4/4
f 10/12/10 37/54/26 36/53/24 8/9/8
f 12/15/12 38/55/28 37/54/26 10/12/10
f 14/18/14 39/56/35 38/55/28 12/15/12
f 16/21/16 40/57/36 39/56/35 14/18/14
f 18/24/18 41/58/37 40/57/36 16/21/16
f 20/27/20 42/59/38 41/58/37 18/24/18
f 22/30/22 43/60/4 42/59/38 20/27/20
f 24/33/24 44/61/8 43/60/4 22/30/22
f 26/36/26 45/62/10 44/61/8 24/33/24
f 28/39/28 46/63/12 45/62/10 26/36/26
f 30/43/30 47/64/39 46/63/12 28/39/28
f 32/46/32 48/65/16 47/66/39 30/47/30
f 33/49/33 49/67/18 48/65/16 32/46/32
f 5/5/5 35/52/20 49/67/18 33/49/33
f 50/68/40 51/69/41 52/70/42
f 50/68/40 34/51/34 36/53/24 53/71/43
f 53/71/43 51/72/41 50/68/40
f 53/71/43 36/53/24 37/54/26 54/73/44
f 54/73/44 51/74/41 53/71/43
f 54/73/44 37/54/26 38/55/28 55/75/45
f 55/75/45 51/76/41 54/73/44
f 55/75/45 38/55/28 39/56/35 56/77/46
f 56/77/46 51/78/41 55/75/45
f 56/77/46 39/56/35 40/57/36 57/79/47
f 57/79/47 51/80/41 56/77/46
f 57/79/47 40/57/36 41/58/37 58/81/48
f 58/81/48 51/82/41 57/79/47
f 58/81/48 41/58/37 42/59/38 59/83/49
f 59/83/49 51/84/41 58/81/48
f 59/83/49 42/59/38 43/60/4 60/85/50
f 60/85/50 51/86/41 59/83/49
f 60/85/50 43/60/4 44/61/8 61/87/51
f 61/87/51 51/88/41 60/85/50
f 61/87/51 44/61/8 45/62/10 62/89/52
f 62/89/52 51/90/41 61/87/51
f 62/89/52 45/62/10 46/63/12 63/91/53
f 63/91/53 51/92/41 62/89/52
f 63/91/53 46/63/12 47/64/39 64/93/54
f 64/93/54 51/94/41 63/91/53
f 64/95/54 47/66/39 48/65/16 65/96/55
f 65/96/55 51/97/41 64/95/54
f 65/96/55 48/65/16 49/67/18 66/98/56
f 66/98/56 51/99/41 65/96/55
f 66/98/56 49/67/18 35/52/20 52/70/42
f 52/70/42 51/100/41 66/98/56
f 52/70/42 35/52/20 34/51/34 50/68/40
o satellite_sep12.001
v 0.115643 0.086056 0.048845
v 0.064211 0.043294 0.020683
v 0.055739 0.059568 -0.000166
v 0.099988 0.116128 0.010321
v 0.112703 0.088137 0.051054
v 0.108888 0.054349 0.088258
v 0.111759 0.051654 0.086724
v 0.062109 0.024675 0.041183
v 0.086465 0.021451 0.119164
v 0.088928 0.018158 0.118192
v 0.049753 0.006547 0.058213
v 0.048846 -0.005548 0.139068
v 0.050626 -0.009332 0.138458
v 0.029024 -0.008330 0.069181
v 0.001760 -0.022538 0.144940
v 0.002683 -0.026631 0.144437
v 0.003078 -0.017692 0.072417
v -0.047626 -0.026932 0.135885
v -0.047600 -0.031105 0.135218
v -0.024135 -0.020114 0.067427
v -0.091794 -0.018062 0.113283
v -0.092570 -0.022074 0.112204
v -0.048473 -0.015226 0.054973
v -0.124018 0.002723 0.080574
v -0.125380 -0.000911 0.078901
v -0.066229 -0.003773 0.036949
v -0.139393 0.032258 0.042737
v -0.141034 0.029161 0.040377
v -0.074701 0.012502 0.016100
v -0.135578 0.066046 0.005534
v -0.137151 0.063563 0.002497
v -0.072599 0.031121 -0.004400
v -0.113155 0.098944 -0.025372
v -0.114320 0.097059 -0.028971
v -0.060243 0.049249 -0.021431
v -0.075536 0.125943 -0.045276
v -0.076017 0.124549 -0.049236
v -0.039514 0.064126 -0.032398
v -0.028450 0.142933 -0.051148
v -0.028075 0.141848 -0.055215
v -0.013568 0.073488 -0.035634
v 0.020936 0.147328 -0.042093
v 0.022209 0.146322 -0.045996
v 0.013645 0.075909 -0.030644
v 0.065103 0.138457 -0.019491
v 0.067179 0.137290 -0.022983
v 0.037983 0.071021 -0.018190
v 0.097327 0.117672 0.013218
v -0.002629 0.017465 0.009184
v 0.061825 0.045836 0.023196
v 0.059773 0.027661 0.043207
v 0.047712 0.009966 0.059831
v 0.027477 -0.004557 0.070537
v 0.002150 -0.013696 0.073696
v -0.024414 -0.016059 0.068825
v -0.048171 -0.011288 0.056668
v -0.065504 -0.000108 0.039074
v -0.073775 0.015779 0.018722
v -0.071723 0.033953 -0.001289
v -0.059661 0.051649 -0.017913
v -0.039427 0.066171 -0.028620
v -0.014099 0.075310 -0.031778
v 0.012465 0.077674 -0.026908
v 0.036222 0.072902 -0.014750
v 0.053555 0.061722 0.002844
v -0.003421 0.020623 0.011972
vt 0.996031 0.781568
vt 0.929455 0.781568
vt 0.923477 0.739685
vt 0.984985 0.704178
vt 0.993440 0.781568
vt 0.982592 0.857576
vt 0.984985 0.858957
vt 0.923477 0.823451
vt 0.951698 0.922012
vt 0.953530 0.924565
vt 0.906453 0.858957
vt 0.905462 0.965067
vt 0.906453 0.968402
vt 0.880976 0.882682
vt 0.850923 0.980186
vt 0.850923 0.983796
vt 0.850923 0.891013
vt 0.796384 0.965067
vt 0.795393 0.968402
vt 0.820870 0.882682
vt 0.750148 0.922012
vt 0.748316 0.924565
vt 0.795393 0.858957
vt 0.719254 0.857576
vt 0.716861 0.858957
vt 0.778369 0.823451
vt 0.708406 0.781568
vt 0.705815 0.781568
vt 0.772391 0.781568
vt 0.719254 0.705560
vt 0.716861 0.704178
vt 0.778369 0.739685
vt 0.750148 0.641123
vt 0.748316 0.638571
vt 0.795393 0.704178
vt 0.796384 0.598068
vt 0.795393 0.594733
vt 0.820870 0.680454
vt 0.850923 0.582949
vt 0.850923 0.579339
vt 0.850923 0.672123
vt 0.905462 0.598068
vt 0.906453 0.594733
vt 0.880976 0.680454
vt 0.951698 0.641123
vt 0.953530 0.638571
vt 0.906453 0.704178
vt 0.982592 0.705560
vt 0.850923 0.781568
vt 0.927582 0.781568
vt 0.921746 0.822452
vt 0.905129 0.857111
vt 0.880259 0.880270
vt 0.850923 0.888403
vt 0.821587 0.880270
vt 0.796717 0.857111
vt 0.780100 0.822452
vt 0.774264 0.781568
vt 0.780100 0.740684
vt 0.796717 0.706024
vt 0.821587 0.682865
vt 0.850923 0.674733
vt 0.880259 0.682865
vt 0.905129 0.706024
vt 0.921746 0.740684
vt 0.850923 0.781568
vn 0.9931 0.0656 -0.0977
vn 0.5437 -0.5983 -0.5886
vn 0.4982 -0.5109 -0.7006
vn 0.8764 0.2896 -0.3847
vn 0.0054 0.7647 0.6444
vn -0.0002 0.7146 0.6996
vn 0.9641 -0.1908 0.1846
vn 0.5324 -0.6982 -0.4786
vn -0.0335 0.6658 0.7454
vn 0.7940 -0.4404 0.4191
vn 0.4661 -0.7956 -0.3871
vn -0.0892 0.6258 0.7749
vn 0.5086 -0.6452 0.5701
vn 0.3548 -0.8754 -0.3282
vn -0.1590 0.6006 0.7836
vn 0.1513 -0.7742 0.6146
vn 0.2155 -0.9257 -0.3108
vn -0.2322 0.5941 0.7701
vn -0.2234 -0.8075 0.5459
vn 0.0693 -0.9387 -0.3376
vn -0.2976 0.6073 0.7367
vn -0.5585 -0.7402 0.3745
vn -0.0613 -0.9125 -0.4045
vn -0.3454 0.6381 0.6882
vn -0.8030 -0.5825 0.1263
vn -0.1567 -0.8510 -0.5013
vn -0.3682 0.6818 0.6321
vn -0.9196 -0.3584 -0.1608
vn -0.2022 -0.7636 -0.6132
vn -0.3625 0.7319 0.5770
vn -0.8907 -0.1021 -0.4430
vn -0.1909 -0.6636 -0.7233
vn -0.3293 0.7807 0.5312
vn -0.7205 0.1475 -0.6775
vn -0.1245 -0.5663 -0.8147
vn -0.2736 0.8207 0.5016
vn -0.4351 0.3524 -0.8285
vn -0.0132 -0.4864 -0.8736
vn -0.2038 0.8459 0.4930
vn -0.0779 0.4813 -0.8731
vn 0.1261 -0.4361 -0.8910
vn -0.1306 0.8524 0.5064
vn 0.2968 0.5146 -0.8044
vn 0.2722 -0.4231 -0.8642
vn -0.0651 0.8392 0.5399
vn 0.6319 0.4473 -0.6329
vn 0.4029 -0.4494 -0.7973
vn -0.0174 0.8084 0.5884
vn 0.1848 -0.7369 -0.6503
vn -0.5437 0.5983 0.5886
vn -0.5324 0.6982 0.4785
vn -0.4661 0.7956 0.3871
vn -0.3548 0.8755 0.3282
vn -0.2155 0.9257 0.3108
vn -0.0693 0.9387 0.3376
vn 0.0613 0.9125 0.4045
vn 0.1567 0.8510 0.5013
vn 0.2022 0.7636 0.6132
vn 0.1909 0.6636 0.7233
vn 0.1245 0.5663 0.8147
vn 0.0132 0.4864 0.8736
vn -0.1261 0.4361 0.8910
vn -0.2722 0.4231 0.8642
vn -0.4029 0.4494 0.7973
vn -0.4982 0.5109 0.7006
vn -0.1848 0.7369 0.6503
usemtl 材质.005
s 1
f 67/101/57 68/102/58 69/103/59 70/104/60
f 67/101/57 71/105/61 72/106/62 73/107/63
f 73/107/63 74/108/64 68/102/58 67/101/57
f 73/107/63 72/106/62 75/109/65 76/110/66
f 76/110/66 77/111/67 74/108/64 73/107/63
f 76/110/66 75/109/65 78/112/68 79/113/69
f 79/113/69 80/114/70 77/111/67 76/110/66
f 79/113/69 78/112/68 81/115/71 82/116/72
f 82/116/72 83/117/73 80/114/70 79/113/69
f 82/116/72 81/115/71 84/118/74 85/119/75
f 85/119/75 86/120/76 83/117/73 82/116/72
f 85/119/75 84/118/74 87/121/77 88/122/78
f 88/122/78 89/123/79 86/120/76 85/119/75
f 88/122/78 87/121/77 90/124/80 91/125/81
f 91/125/81 92/126/82 89/123/79 88/122/78
f 91/125/81 90/124/80 93/127/83 94/128/84
f 94/128/84 95/129/85 92/126/82 91/125/81
f 94/128/84 93/127/83 96/130/86 97/131/87
f 97/131/87 98/132/88 95/129/85 94/128/84
f 97/131/87 96/130/86 99/133/89 100/134/90
f 100/134/90 101/135/91 98/132/88 97/131/87
f 100/134/90 99/133/89 102/136/92 103/137/93
f 103/137/93 104/138/94 101/135/91 100/134/90
f 103/137/93 102/136/92 105/139/95 106/140/96
f 106/140/96 107/141/97 104/138/94 103/137/93
f 106/140/96 105/139/95 108/142/98 109/143/99
f 109/143/99 110/144/100 107/141/97 106/140/96
f 109/143/99 108/142/98 111/145/101 112/146/102
f 112/146/102 113/147/103 110/144/100 109/143/99
f 112/146/102 111/145/101 114/148/104 70/104/60
f 70/104/60 69/103/59 113/147/103 112/146/102
f 70/104/60 114/148/104 71/105/61 67/101/57
f 68/102/58 115/149/105 69/103/59
f 74/108/64 115/149/105 68/102/58
f 77/111/67 115/149/105 74/108/64
f 80/114/70 115/149/105 77/111/67
f 83/117/73 115/149/105 80/114/70
f 86/120/76 115/149/105 83/117/73
f 89/123/79 115/149/105 86/120/76
f 92/126/82 115/149/105 89/123/79
f 95/129/85 115/149/105 92/126/82
f 98/132/88 115/149/105 95/129/85
f 101/135/91 115/149/105 98/132/88
f 104/138/94 115/149/105 101/135/91
f 107/141/97 115/149/105 104/138/94
f 110/144/100 115/149/105 107/141/97
f 113/147/103 115/149/105 110/144/100
f 69/103/59 115/149/105 113/147/103
f 71/105/61 116/150/106 117/151/107 72/106/62
f 72/106/62 117/151/107 118/152/108 75/109/65
f 75/109/65 118/152/108 119/153/109 78/112/68
f 78/112/68 119/153/109 120/154/110 81/115/71
f 81/115/71 120/154/110 121/155/111 84/118/74
f 84/118/74 121/155/111 122/156/112 87/121/77
f 87/121/77 122/156/112 123/157/113 90/124/80
f 90/124/80 123/157/113 124/158/114 93/127/83
f 93/127/83 124/158/114 125/159/115 96/130/86
f 96/130/86 125/159/115 126/160/116 99/133/89
f 99/133/89 126/160/116 127/161/117 102/136/92
f 102/136/92 127/161/117 128/162/118 105/139/95
f 105/139/95 128/162/118 129/163/119 108/142/98
f 108/142/98 129/163/119 130/164/120 111/145/101
f 111/145/101 130/164/120 131/165/121 114/148/104
f 114/148/104 131/165/121 116/150/106 71/105/61
f 116/150/106 132/166/122 117/151/107
f 117/151/107 132/166/122 118/152/108
f 118/152/108 132/166/122 119/153/109
f 119/153/109 132/166/122 120/154/110
f 120/154/110 132/166/122 121/155/111
f 121/155/111 132/166/122 122/156/112
f 122/156/112 132/166/122 123/157/113
f 123/157/113 132/166/122 124/158/114
f 124/158/114 132/166/122 125/159/115
f 125/159/115 132/166/122 126/160/116
f 126/160/116 132/166/122 127/161/117
f 127/161/117 132/166/122 128/162/118
f 128/162/118 132/166/122 129/163/119
f 129/163/119 132/166/122 130/164/120
f 130/164/120 132/166/122 131/165/121
f 131/165/121 132/166/122 116/150/106
o satellite_sep13.001
v -0.073102 -0.095595 0.045898
v 0.106523 -0.055779 0.051824
v 0.097092 -0.018172 0.085013
v -0.082533 -0.057988 0.079087
v -0.094627 0.022308 -0.093819
v 0.084998 0.062124 -0.087893
v -0.104058 0.059915 -0.060631
v 0.075567 0.099731 -0.054705
vt 0.537479 0.089701
vt 0.826006 0.089701
vt 0.826006 0.211704
vt 0.537479 0.211704
vt 0.537479 0.469269
vt 0.537479 0.029223
vt 0.826006 0.029223
vt 0.826006 0.469269
vt 0.830941 0.216831
vt 0.542414 0.216831
vt 0.542414 0.094827
vt 0.830941 0.094827
vt 0.835348 0.030094
vt 0.835348 0.470141
vt 0.546821 0.470141
vt 0.546821 0.030094
vt 0.531149 0.089701
vt 0.819676 0.089701
vt 0.819676 0.211704
vt 0.531149 0.211704
vt 0.822689 0.211704
vt 0.534162 0.211704
vt 0.534162 0.089701
vt 0.822689 0.089701
vn -0.3892 -0.9201 0.0442
vn 0.7376 -0.6703 0.0813
vn 0.5242 0.1805 0.8322
vn -0.6026 -0.0692 0.7951
vn -0.5242 -0.1805 -0.8322
vn 0.6026 0.0692 -0.7951
vn -0.7376 0.6703 -0.0814
vn 0.3892 0.9201 -0.0442
usemtl 材质.010
s 1
f 133/167/123 134/168/124 135/169/125 136/170/126
f 133/171/123 137/172/127 138/173/128 134/174/124
f 136/175/126 139/176/129 137/177/127 133/178/123
f 135/179/125 140/180/130 139/181/129 136/182/126
f 134/183/124 138/184/128 140/185/130 135/186/125
f 139/187/129 140/188/130 138/189/128 137/190/127
o satellite_sep2.001
v -0.031996 -0.094784 -0.010438
v 0.072546 -0.071611 -0.006989
v 0.063114 -0.034003 0.026199
v -0.041427 -0.057176 0.022750
v -0.044524 -0.026164 -0.091754
v 0.060018 -0.002991 -0.088305
v -0.053955 0.011443 -0.058566
v 0.050587 0.034616 -0.055117
vt 0.597645 0.048122
vt 0.832032 0.048122
vt 0.832032 0.207771
vt 0.597645 0.207771
vt 0.597645 0.363770
vt 0.597645 0.028639
vt 0.832033 0.028639
vt 0.832033 0.363770
vt 0.836497 0.207771
vt 0.602109 0.207771
vt 0.602109 0.048122
vt 0.836497 0.048122
vt 0.832033 0.026510
vt 0.832033 0.361641
vt 0.597645 0.361641
vt 0.597645 0.026510
vt 0.600667 0.042381
vt 0.835055 0.042381
vt 0.835055 0.202029
vt 0.600667 0.202029
vt 0.838077 0.202029
vt 0.603690 0.202029
vt 0.603690 0.042381
vt 0.838077 0.042381
vn -0.3892 -0.9201 0.0442
vn 0.7376 -0.6703 0.0814
vn 0.5242 0.1805 0.8322
vn -0.6026 -0.0692 0.7951
vn -0.5242 -0.1805 -0.8322
vn 0.6026 0.0692 -0.7951
vn -0.7376 0.6703 -0.0814
vn 0.3892 0.9201 -0.0442
usemtl 材质.013
s 1
f 141/191/131 142/192/132 143/193/133 144/194/134
f 141/195/131 145/196/135 146/197/136 142/198/132
f 144/199/134 147/200/137 145/201/135 141/202/131
f 143/203/133 148/204/138 147/205/137 144/206/134
f 142/207/132 146/208/136 148/209/138 143/210/133
f 147/211/137 148/212/138 146/213/136 145/214/135
o satellite_sep3.001
v -0.511584 -0.180281 0.040931
v -0.160102 -0.104360 0.051905
v -0.164535 -0.086684 0.067504
v -0.516016 -0.162606 0.056529
v -0.533109 -0.062378 -0.098787
v -0.181627 0.013543 -0.087812
v -0.537541 -0.044703 -0.083188
v -0.186060 0.031219 -0.072214
vt 0.348892 0.097919
vt 0.485204 0.097919
vt 0.485204 0.132140
vt 0.348892 0.132140
vt 0.020388 0.288034
vt 0.020388 0.040390
vt 0.310329 0.040390
vt 0.310329 0.288034
vt 0.388501 0.132140
vt 0.350467 0.132140
vt 0.350467 0.097919
vt 0.388501 0.097919
vt 0.310329 0.288034
vt 0.310329 0.040390
vt 0.020388 0.040390
vt 0.020388 0.288034
vt 0.349814 0.097919
vt 0.387847 0.097919
vt 0.387847 0.132140
vt 0.349814 0.132140
vt 0.486437 0.132140
vt 0.350125 0.132140
vt 0.350125 0.097919
vt 0.486437 0.097919
vn -0.3914 -0.9191 0.0448
vn 0.7360 -0.6722 0.0806
vn 0.5254 0.1788 0.8319
vn -0.6022 -0.0671 0.7955
vn -0.5254 -0.1788 -0.8319
vn 0.6022 0.0672 -0.7955
vn -0.7360 0.6722 -0.0806
vn 0.3914 0.9191 -0.0448
usemtl 材质.014
s 1
f 149/215/139 150/216/140 151/217/141 152/218/142
f 149/219/139 153/220/143 154/221/144 150/222/140
f 152/223/142 155/224/145 153/225/143 149/226/139
f 151/227/141 156/228/146 155/229/145 152/230/142
f 150/231/140 154/232/144 156/233/146 151/234/141
f 155/235/145 156/236/146 154/237/144 153/238/143
o satellite_sep4.001
v 0.182214 -0.028481 0.063199
v 0.533696 0.047440 0.074174
v 0.529263 0.065116 0.089772
v 0.177782 -0.010806 0.078798
v 0.160689 0.089422 -0.076519
v 0.512171 0.165343 -0.065544
v 0.156257 0.107097 -0.060920
v 0.507738 0.183019 -0.049946
vt 0.349948 0.093955
vt 0.486375 0.093955
vt 0.486375 0.129413
vt 0.349948 0.129413
vt 0.020388 0.288034
vt 0.020388 0.040390
vt 0.310329 0.040390
vt 0.310329 0.288034
vt 0.388409 0.132007
vt 0.350343 0.132007
vt 0.350343 0.096549
vt 0.388409 0.096549
vt 0.310329 0.288034
vt 0.310329 0.040390
vt 0.020388 0.040390
vt 0.020388 0.288034
vt 0.348778 0.093955
vt 0.386843 0.093955
vt 0.386843 0.129413
vt 0.348778 0.129413
vt 0.486752 0.132007
vt 0.350325 0.132007
vt 0.350325 0.096549
vt 0.486752 0.096549
vn -0.3914 -0.9191 0.0448
vn 0.7360 -0.6722 0.0806
vn 0.5254 0.1788 0.8319
vn -0.6022 -0.0671 0.7955
vn -0.5254 -0.1788 -0.8319
vn 0.6022 0.0672 -0.7955
vn -0.7360 0.6722 -0.0806
vn 0.3914 0.9191 -0.0448
usemtl 材质.015
s 1
f 157/239/147 158/240/148 159/241/149 160/242/150
f 157/243/147 161/244/151 162/245/152 158/246/148
f 160/247/150 163/248/153 161/249/151 157/250/147
f 159/251/149 164/252/154 163/253/153 160/254/150
f 158/255/148 162/256/152 164/257/154 159/258/149
f 163/259/153 164/260/154 162/261/152 161/262/151
o satellite_sep5.001
v 0.484689 0.103174 0.007491
v 0.484381 0.104750 0.006230
v 0.483973 0.106672 0.005680
v 0.483527 0.108650 0.005923
v 0.483110 0.110380 0.006922
v 0.482787 0.111600 0.008527
v 0.482606 0.112125 0.010491
v 0.482595 0.111873 0.012517
v 0.482755 0.110884 0.014296
v 0.483063 0.109308 0.015556
v 0.483471 0.107386 0.016107
v 0.483917 0.105408 0.015864
v 0.484334 0.103678 0.014865
v 0.484657 0.102458 0.013260
v 0.484838 0.101933 0.011296
v 0.484849 0.102185 0.009270
v -0.480290 -0.106748 -0.023102
v -0.480598 -0.105172 -0.024363
v -0.480130 -0.107737 -0.021324
v -0.480141 -0.107988 -0.019298
v -0.480322 -0.107464 -0.017333
v -0.480645 -0.106244 -0.015729
v -0.481062 -0.104513 -0.014729
v -0.481508 -0.102536 -0.014486
v -0.481916 -0.100613 -0.015037
v -0.482224 -0.099037 -0.016298
v -0.482384 -0.098048 -0.018076
v -0.482373 -0.097797 -0.020102
v -0.482192 -0.098321 -0.022067
v -0.481869 -0.099542 -0.023671
v -0.481452 -0.101272 -0.024671
v -0.481006 -0.103249 -0.024914
vt 0.977944 0.062261
vt 0.977944 0.064976
vt 0.977944 0.072710
vt 0.977944 0.084285
vt 0.977944 0.097938
vt 0.977944 0.111591
vt 0.977944 0.123166
vt 0.977944 0.130900
vt 0.977944 0.133616
vt 0.977944 0.130900
vt 0.977944 0.123166
vt 0.977944 0.111591
vt 0.977944 0.097938
vt 0.977944 0.084285
vt 0.977944 0.072710
vt 0.977944 0.064976
vt 0.885648 0.062261
vt 0.885648 0.064976
vt 0.885648 0.064976
vt 0.885648 0.072710
vt 0.885648 0.084285
vt 0.885648 0.097938
vt 0.885648 0.111591
vt 0.885648 0.123166
vt 0.885648 0.130900
vt 0.885648 0.133616
vt 0.885648 0.130900
vt 0.885648 0.123166
vt 0.885648 0.111591
vt 0.885648 0.097938
vt 0.885648 0.084285
vt 0.885648 0.072710
vn 0.6063 -0.5594 -0.5652
vn 0.5542 -0.2908 -0.7799
vn 0.4853 0.0370 -0.8736
vn 0.4100 0.3739 -0.8319
vn 0.3398 0.6685 -0.6615
vn 0.2854 0.8762 -0.3883
vn 0.2550 0.9654 -0.0538
vn 0.2533 0.9226 0.2910
vn 0.2805 0.7543 0.5936
vn 0.3324 0.4861 0.8082
vn 0.4012 0.1587 0.9021
vn 0.4764 -0.1780 0.8610
vn 0.5468 -0.4730 0.6909
vn 0.6012 -0.6812 0.4177
vn 0.6317 -0.7707 0.0830
vn 0.6335 -0.7280 -0.2621
vn -0.2805 -0.7543 -0.5936
vn -0.3323 -0.4869 -0.8078
vn -0.2533 -0.9226 -0.2909
vn -0.2551 -0.9654 0.0538
vn -0.2854 -0.8762 0.3882
vn -0.3399 -0.6685 0.6615
vn -0.4101 -0.3739 0.8319
vn -0.4853 -0.0369 0.8736
vn -0.5542 0.2908 0.7799
vn -0.6063 0.5594 0.5652
vn -0.6335 0.7280 0.2621
vn -0.6317 0.7707 -0.0830
vn -0.6012 0.6812 -0.4177
vn -0.5468 0.4730 -0.6909
vn -0.4765 0.1781 -0.8609
vn -0.4012 -0.1587 -0.9021
usemtl 材质.016
s 1
f 165/263/155 166/264/156 167/265/157 168/266/158 169/267/159 170/268/160 171/269/161 172/270/162 173/271/163 174/272/164 175/273/165 176/274/166 177/275/167 178/276/168 179/277/169 180/278/170
f 165/263/155 181/279/171 182/280/172 166/264/156
f 180/278/170 183/281/173 181/279/171 165/263/155
f 179/277/169 184/282/174 183/281/173 180/278/170
f 178/276/168 185/283/175 184/282/174 179/277/169
f 177/275/167 186/284/176 185/283/175 178/276/168
f 176/274/166 187/285/177 186/284/176 177/275/167
f 175/273/165 188/286/178 187/285/177 176/274/166
f 174/272/164 189/287/179 188/286/178 175/273/165
f 173/271/163 190/288/180 189/287/179 174/272/164
f 172/270/162 191/289/181 190/288/180 173/271/163
f 171/269/161 192/290/182 191/289/181 172/270/162
f 170/268/160 193/291/183 192/290/182 171/269/161
f 169/267/159 194/292/184 193/291/183 170/268/160
f 168/266/158 195/293/185 194/292/184 169/267/159
f 167/265/157 196/294/186 195/293/185 168/266/158
f 166/264/156 182/280/172 196/294/186 167/265/157
f 183/281/173 184/282/174 185/283/175 186/284/176 187/285/177 188/286/178 189/287/179 190/288/180 191/289/181 192/290/182 193/291/183 194/292/184 195/293/185 196/294/186 182/280/172 181/279/171
o satellite_sep6.001
v -0.020838 0.136196 0.112183
v -0.020614 0.140808 0.110559
v -0.023911 0.142935 0.107212
v -0.028432 0.143843 0.104899
v -0.033486 0.143393 0.103972
v -0.038305 0.141654 0.104573
v -0.042155 0.138891 0.106609
v -0.044449 0.135524 0.109773
v -0.044840 0.132066 0.113580
v -0.041415 0.128772 0.114749
v -0.038614 0.126965 0.117592
v -0.034775 0.126194 0.119557
v -0.030395 0.126459 0.124039
v -0.025576 0.128198 0.123439
v -0.023119 0.130400 0.118104
v -0.021169 0.133259 0.115417
v -0.015443 0.114685 0.093199
v -0.014263 0.115482 0.088209
v -0.015775 0.111748 0.096433
v -0.017724 0.108888 0.099120
v -0.020994 0.106541 0.100850
v -0.025087 0.105064 0.101360
v -0.029380 0.104682 0.100573
v -0.033220 0.105453 0.098608
v -0.036021 0.107260 0.095765
v -0.038489 0.106740 0.091230
v -0.038099 0.110199 0.087423
v -0.035803 0.113565 0.084261
v -0.031953 0.116328 0.082223
v -0.027135 0.118067 0.081622
v -0.022081 0.118517 0.082549
v -0.017561 0.117609 0.084862
vt 0.975466 0.237113
vt 0.975466 0.219078
vt 0.975466 0.203789
vt 0.975466 0.193573
vt 0.975466 0.189985
vt 0.975466 0.193573
vt 0.975466 0.203789
vt 0.975466 0.219078
vt 0.975466 0.237113
vt 0.975466 0.255149
vt 0.975466 0.270438
vt 0.975466 0.280654
vt 0.975466 0.284242
vt 0.975466 0.280654
vt 0.975466 0.270438
vt 0.975466 0.255149
vt 0.882237 0.237113
vt 0.882237 0.219078
vt 0.882237 0.255149
vt 0.882237 0.270438
vt 0.882237 0.280654
vt 0.882237 0.284242
vt 0.882237 0.280654
vt 0.882237 0.270438
vt 0.882237 0.255149
vt 0.882237 0.237113
vt 0.882237 0.219078
vt 0.882237 0.203789
vt 0.882237 0.193573
vt 0.882237 0.189985
vt 0.882237 0.193573
vt 0.882237 0.203789
vn 0.8277 0.3537 0.4357
vn 0.7534 0.6380 0.1595
vn 0.4803 0.8679 -0.1263
vn 0.1701 0.9429 -0.2864
vn -0.1832 0.9181 -0.3514
vn -0.5203 0.7961 -0.3090
vn -0.7842 0.5977 -0.1665
vn -0.9326 0.3572 0.0508
vn -0.9347 0.0502 0.3518
vn -0.7310 -0.2265 0.6437
vn -0.5968 -0.2341 0.7674
vn -0.3844 -0.3266 0.8635
vn -0.0082 -0.3577 0.9338
vn 0.4198 -0.2054 0.8841
vn 0.6796 0.0569 0.7314
vn 0.7591 0.2543 0.5993
vn 0.9767 -0.2115 -0.0360
vn 0.9406 -0.0560 -0.3349
vn 0.9127 -0.4015 0.0761
vn 0.8046 -0.5501 0.2237
vn 0.5734 -0.7493 0.3314
vn 0.1156 -0.9143 0.3883
vn -0.2083 -0.9139 0.3483
vn -0.4134 -0.8785 0.2395
vn -0.5793 -0.7913 0.1957
vn -0.7634 -0.6087 -0.2161
vn -0.7602 -0.3739 -0.5313
vn -0.6125 -0.1462 -0.7768
vn -0.3396 0.0507 -0.9392
vn 0.0121 0.1782 -0.9839
vn 0.3758 0.2120 -0.9021
vn 0.6847 0.1490 -0.7134
usemtl 材质.017
s 1
f 197/295/187 198/296/188 199/297/189 200/298/190 201/299/191 202/300/192 203/301/193 204/302/194 205/303/195 206/304/196 207/305/197 208/306/198 209/307/199 210/308/200 211/309/201 212/310/202
f 197/295/187 213/311/203 214/312/204 198/296/188
f 212/310/202 215/313/205 213/311/203 197/295/187
f 211/309/201 216/314/206 215/313/205 212/310/202
f 210/308/200 217/315/207 216/314/206 211/309/201
f 209/307/199 218/316/208 217/315/207 210/308/200
f 208/306/198 219/317/209 218/316/208 209/307/199
f 207/305/197 220/318/210 219/317/209 208/306/198
f 206/304/196 221/319/211 220/318/210 207/305/197
f 205/303/195 222/320/212 221/319/211 206/304/196
f 204/302/194 223/321/213 222/320/212 205/303/195
f 203/301/193 224/322/214 223/321/213 204/302/194
f 202/300/192 225/323/215 224/322/214 203/301/193
f 201/299/191 226/324/216 225/323/215 202/300/192
f 200/298/190 227/325/217 226/324/216 201/299/191
f 199/297/189 228/326/218 227/325/217 200/298/190
f 198/296/188 214/312/204 228/326/218 199/297/189
f 215/313/205 216/314/206 217/315/207 218/316/208 219/317/209 220/318/210 221/319/211 222/320/212 223/321/213 224/322/214 225/323/215 226/324/216 227/325/217 228/326/218 214/312/204 213/311/203
o satellite_sep7.001
v -0.024756 0.128667 0.106433
v -0.025421 0.129946 0.104795
v -0.026816 0.130845 0.103379
v -0.028728 0.131229 0.102400
v -0.030866 0.131039 0.102009
v -0.032905 0.130304 0.102263
v -0.034533 0.129135 0.103124
v -0.035504 0.127711 0.104462
v -0.035669 0.126248 0.106073
v -0.035003 0.124969 0.107711
v -0.033608 0.124070 0.109127
v -0.031696 0.123686 0.110105
v -0.029558 0.123876 0.110497
v -0.027520 0.124611 0.110243
v -0.025892 0.125780 0.109381
v -0.024921 0.127204 0.108043
v 0.002490 0.020023 0.010554
v 0.001824 0.021302 0.008916
v 0.002325 0.018560 0.012165
v 0.001354 0.017136 0.013503
v -0.000275 0.015967 0.014365
v -0.002313 0.015232 0.014619
v -0.004451 0.015042 0.014227
v -0.006363 0.015426 0.013248
v -0.007758 0.016325 0.011832
v -0.008424 0.017604 0.010194
v -0.008258 0.019067 0.008584
v -0.007288 0.020491 0.007246
v -0.005659 0.021660 0.006384
v -0.003621 0.022395 0.006130
v -0.001483 0.022585 0.006522
v 0.000429 0.022201 0.007500
vt 0.891694 0.427099
vt 0.895441 0.427099
vt 0.899188 0.427099
vt 0.902935 0.427099
vt 0.906682 0.427099
vt 0.910429 0.427099
vt 0.914176 0.427099
vt 0.917923 0.427099
vt 0.921670 0.427099
vt 0.925417 0.427099
vt 0.929164 0.427099
vt 0.932911 0.427099
vt 0.936658 0.427099
vt 0.940405 0.427099
vt 0.884200 0.427099
vt 0.887947 0.427099
vt 0.951646 0.427099
vt 0.951646 0.332842
vt 0.955393 0.332842
vt 0.955393 0.427099
vt 0.947899 0.427099
vt 0.947899 0.332842
vt 0.944152 0.427099
vt 0.944152 0.332842
vt 0.940405 0.332842
vt 0.936658 0.332842
vt 0.932911 0.332842
vt 0.929164 0.332842
vt 0.925417 0.332842
vt 0.921670 0.332842
vt 0.917923 0.332842
vt 0.914176 0.332842
vt 0.910429 0.332842
vt 0.906682 0.332842
vt 0.962887 0.427099
vt 0.962887 0.332842
vt 0.966634 0.332842
vt 0.966634 0.427099
vt 0.959140 0.427099
vt 0.959140 0.332842
vt 0.887947 0.332842
vt 0.884200 0.332842
vt 0.902935 0.332842
vt 0.899188 0.332842
vt 0.895441 0.332842
vt 0.891694 0.332842
vn 0.7854 0.5274 0.3240
vn 0.6794 0.7311 0.0631
vn 0.4571 0.8744 -0.1625
vn 0.1525 0.9356 -0.3184
vn -0.1881 0.9053 -0.3809
vn -0.5128 0.7881 -0.3404
vn -0.7723 0.6019 -0.2031
vn -0.9270 0.3750 0.0101
vn -0.9533 0.1420 0.2667
vn -0.8472 -0.0617 0.5276
vn -0.6250 -0.2051 0.7532
vn -0.3204 -0.2662 0.9091
vn 0.0203 -0.2360 0.9716
vn 0.3450 -0.1188 0.9310
vn 0.6045 0.0674 0.7938
vn 0.7591 0.2943 0.5806
vn 0.9533 -0.1420 -0.2667
vn 0.8472 0.0617 -0.5277
vn 0.9270 -0.3750 -0.0101
vn 0.7723 -0.6019 0.2031
vn 0.5129 -0.7881 0.3404
vn 0.1881 -0.9053 0.3809
vn -0.1525 -0.9356 0.3184
vn -0.4572 -0.8744 0.1625
vn -0.6793 -0.7311 -0.0631
vn -0.7854 -0.5274 -0.3240
vn -0.7591 -0.2943 -0.5806
vn -0.6045 -0.0674 -0.7938
vn -0.3450 0.1188 -0.9311
vn -0.0203 0.2360 -0.9716
vn 0.3203 0.2663 -0.9091
vn 0.6250 0.2051 -0.7532
usemtl 材质.016
s 1
f 229/327/219 230/328/220 231/329/221 232/330/222 233/331/223 234/332/224 235/333/225 236/334/226 237/335/227 238/336/228 239/337/229 240/338/230 241/339/231 242/340/232 243/341/233 244/342/234
f 229/343/219 245/344/235 246/345/236 230/346/220
f 244/347/234 247/348/237 245/344/235 229/343/219
f 243/349/233 248/350/238 247/348/237 244/347/234
f 242/340/232 249/351/239 248/350/238 243/349/233
f 241/339/231 250/352/240 249/351/239 242/340/232
f 240/338/230 251/353/241 250/352/240 241/339/231
f 239/337/229 252/354/242 251/353/241 240/338/230
f 238/336/228 253/355/243 252/354/242 239/337/229
f 237/335/227 254/356/244 253/355/243 238/336/228
f 236/334/226 255/357/245 254/356/244 237/335/227
f 235/333/225 256/358/246 255/357/245 236/334/226
f 234/332/224 257/359/247 256/358/246 235/333/225
f 233/331/223 258/360/248 257/359/247 234/332/224
f 232/361/222 259/362/249 258/363/248 233/364/223
f 231/365/221 260/366/250 259/362/249 232/361/222
f 230/346/220 246/345/236 260/366/250 231/365/221
f 247/367/237 248/368/238 249/351/239 250/352/240 251/353/241 252/354/242 253/355/243 254/356/244 255/357/245 256/358/246 257/359/247 258/360/248 259/369/249 260/370/250 246/371/236 245/372/235
o satellite_sep8.001
v -0.544448 -0.123587 -0.027428
v -0.538265 -0.127964 -0.032075
v -0.537771 -0.131008 -0.026599
v -0.544181 -0.125235 -0.024465
v -0.547751 -0.117540 -0.021816
v -0.544961 -0.120962 -0.029529
v -0.537805 -0.131783 -0.020363
v -0.544199 -0.125654 -0.021090
v -0.538363 -0.130169 -0.014316
v -0.544501 -0.124780 -0.017818
v -0.539358 -0.126412 -0.009378
v -0.545040 -0.122748 -0.015145
v -0.540640 -0.121086 -0.006300
v -0.545734 -0.119865 -0.013480
v -0.542014 -0.115000 -0.005553
v -0.546477 -0.116571 -0.013075
v -0.543270 -0.109081 -0.007248
v -0.547157 -0.113368 -0.013992
v -0.544217 -0.104230 -0.011129
v -0.547670 -0.110742 -0.016093
v -0.544711 -0.101186 -0.016604
v -0.547937 -0.109095 -0.019056
v -0.544677 -0.100412 -0.022840
v -0.547919 -0.108676 -0.022431
v -0.544120 -0.102026 -0.028887
v -0.547617 -0.109549 -0.025703
v -0.543124 -0.105782 -0.033825
v -0.547078 -0.111582 -0.028376
v -0.541842 -0.111108 -0.036903
v -0.546384 -0.114465 -0.030041
v -0.540468 -0.117195 -0.037651
v -0.545641 -0.117759 -0.030446
v -0.539212 -0.123114 -0.035955
v -0.530143 -0.130004 -0.035047
v -0.529497 -0.133982 -0.027894
v -0.529542 -0.134993 -0.019746
v -0.530270 -0.132884 -0.011845
v -0.531571 -0.127976 -0.005392
v -0.533246 -0.121017 -0.001372
v -0.535041 -0.113065 -0.000395
v -0.536682 -0.105331 -0.002610
v -0.537919 -0.098993 -0.007680
v -0.538565 -0.095016 -0.014834
v -0.538520 -0.094005 -0.022981
v -0.537792 -0.096114 -0.030883
v -0.536492 -0.101021 -0.037335
v -0.534816 -0.107981 -0.041356
v -0.533021 -0.115933 -0.042333
v -0.531380 -0.123666 -0.040118
v -0.521317 -0.129397 -0.035894
v -0.520618 -0.133702 -0.028151
v -0.520667 -0.134796 -0.019332
v -0.521455 -0.132514 -0.010780
v -0.522863 -0.127202 -0.003796
v -0.524676 -0.119669 0.000556
v -0.526619 -0.111061 0.001614
v -0.528395 -0.102691 -0.000784
v -0.529735 -0.095831 -0.006272
v -0.530434 -0.091526 -0.014015
v -0.530385 -0.090431 -0.022834
v -0.529597 -0.092713 -0.031386
v -0.528189 -0.098026 -0.038370
v -0.526376 -0.105559 -0.042722
v -0.524433 -0.114166 -0.043780
v -0.522657 -0.122536 -0.041382
vt 0.209448 0.887965
vt 0.209448 0.929872
vt 0.182113 0.929872
vt 0.182113 0.887965
vt 0.223116 0.832164
vt 0.236783 0.887965
vt 0.619475 0.887965
vt 0.619475 0.929872
vt 0.592140 0.929872
vt 0.592140 0.887965
vt 0.195781 0.832164
vt 0.564805 0.929872
vt 0.564805 0.887965
vt 0.154778 0.887965
vt 0.168446 0.832164
vt 0.537470 0.929872
vt 0.537470 0.887965
vt 0.127443 0.887965
vt 0.141111 0.832164
vt 0.510135 0.929872
vt 0.510135 0.887965
vt 0.100108 0.887965
vt 0.113775 0.832164
vt 0.482800 0.929872
vt 0.482800 0.887965
vt 0.072773 0.887965
vt 0.086440 0.832164
vt 0.455465 0.929872
vt 0.455465 0.887965
vt 0.045438 0.887965
vt 0.059105 0.832164
vt 0.428129 0.929872
vt 0.428129 0.887965
vt 0.250451 0.832164
vt 0.400794 0.929872
vt 0.400794 0.887965
vt 0.441797 0.832164
vt 0.373459 0.929872
vt 0.373459 0.887965
vt 0.414462 0.832164
vt 0.346124 0.929872
vt 0.346124 0.887965
vt 0.387127 0.832164
vt 0.318789 0.929872
vt 0.318789 0.887965
vt 0.359792 0.832164
vt 0.291454 0.929872
vt 0.291454 0.887965
vt 0.332456 0.832164
vt 0.264119 0.929872
vt 0.264119 0.887965
vt 0.305121 0.832164
vt 0.236783 0.929872
vt 0.277786 0.832164
vt 0.209448 0.961120
vt 0.182113 0.961120
vt 0.619475 0.961120
vt 0.592140 0.961120
vt 0.564805 0.961120
vt 0.537470 0.961120
vt 0.510135 0.961120
vt 0.482800 0.961120
vt 0.455465 0.961120
vt 0.428129 0.961120
vt 0.400794 0.961120
vt 0.373459 0.961120
vt 0.346124 0.961120
vt 0.318789 0.961120
vt 0.291454 0.961120
vt 0.264119 0.961120
vt 0.236783 0.961120
vt 0.209448 0.986753
vt 0.182113 0.986753
vt 0.619475 0.986753
vt 0.592140 0.986753
vt 0.564805 0.986753
vt 0.537470 0.986753
vt 0.510135 0.986753
vt 0.482800 0.986753
vt 0.455465 0.986753
vt 0.428129 0.986753
vt 0.400794 0.986753
vt 0.373459 0.986753
vt 0.346124 0.986753
vt 0.318789 0.986753
vt 0.291454 0.986753
vt 0.264119 0.986753
vt 0.236783 0.986753
vt 0.045438 0.986753
vt 0.072773 0.986753
vt 0.100108 0.986753
vt 0.127443 0.986753
vt 0.154778 0.986753
vn -0.8311 -0.4815 -0.2783
vn -0.5599 -0.6737 -0.4823
vn -0.5383 -0.8073 -0.2421
vn -0.8194 -0.5537 -0.1483
vn -0.9758 -0.2163 -0.0322
vn -0.8536 -0.3664 -0.3704
vn -0.5398 -0.8412 0.0315
vn -0.8202 -0.5721 -0.0004
vn -0.5642 -0.7704 0.2969
vn -0.8334 -0.5338 0.1432
vn -0.6079 -0.6056 0.5135
vn -0.8570 -0.4447 0.2603
vn -0.6641 -0.3719 0.6485
vn -0.8874 -0.3183 0.3334
vn -0.7244 -0.1049 0.6814
vn -0.9201 -0.1738 0.3511
vn -0.7795 0.1548 0.6070
vn -0.9499 -0.0334 0.3109
vn -0.8211 0.3676 0.4367
vn -0.9723 0.0818 0.2188
vn -0.8427 0.5012 0.1965
vn -0.9841 0.1540 0.0889
vn -0.8412 0.5351 -0.0771
vn -0.9833 0.1723 -0.0591
vn -0.8168 0.4643 -0.3424
vn -0.9700 0.1341 -0.2026
vn -0.7731 0.2995 -0.5591
vn -0.9464 0.0449 -0.3198
vn -0.7169 0.0658 -0.6941
vn -0.9160 -0.0815 -0.3929
vn -0.6566 -0.2012 -0.7269
vn -0.8834 -0.2259 -0.4106
vn -0.6015 -0.4609 -0.6525
vn -0.2032 -0.7635 -0.6130
vn -0.1749 -0.9381 -0.2990
vn -0.1768 -0.9825 0.0587
vn -0.2088 -0.8899 0.4055
vn -0.2659 -0.6745 0.6887
vn -0.3394 -0.3690 0.8653
vn -0.4182 -0.0199 0.9081
vn -0.4903 0.3195 0.8109
vn -0.5446 0.5978 0.5883
vn -0.5729 0.7724 0.2743
vn -0.5710 0.8167 -0.0833
vn -0.5390 0.7242 -0.4302
vn -0.4819 0.5087 -0.7134
vn -0.4084 0.2032 -0.8899
vn -0.3296 -0.1458 -0.9328
vn -0.2575 -0.4853 -0.8356
vn 0.4738 -0.6357 -0.6094
vn 0.5030 -0.8157 -0.2857
vn 0.5010 -0.8615 0.0831
vn 0.4680 -0.7661 0.4406
vn 0.4092 -0.5439 0.7326
vn 0.3334 -0.2289 0.9146
vn 0.2521 0.1309 0.9588
vn 0.1779 0.4809 0.8585
vn 0.1218 0.7677 0.6291
vn 0.0926 0.9477 0.3053
vn 0.0946 0.9935 -0.0634
vn 0.1276 0.8980 -0.4210
vn 0.1865 0.6760 -0.7129
vn 0.2623 0.3610 -0.8949
vn 0.3435 0.0011 -0.9391
vn 0.4178 -0.3489 -0.8389
usemtl 材质.018
s 1
f 261/373/251 262/374/252 263/375/253 264/376/254
f 261/373/251 265/377/255 266/378/256
f 264/379/254 263/380/253 267/381/257 268/382/258
f 264/376/254 265/383/255 261/373/251
f 268/382/258 267/381/257 269/384/259 270/385/260
f 268/386/258 265/387/255 264/376/254
f 270/385/260 269/384/259 271/388/261 272/389/262
f 270/390/260 265/391/255 268/386/258
f 272/389/262 271/388/261 273/392/263 274/393/264
f 272/394/262 265/395/255 270/390/260
f 274/393/264 273/392/263 275/396/265 276/397/266
f 274/398/264 265/399/255 272/394/262
f 276/397/266 275/396/265 277/400/267 278/401/268
f 276/402/266 265/403/255 274/398/264
f 278/401/268 277/400/267 279/404/269 280/405/270
f 278/401/268 265/406/255 276/402/266
f 280/405/270 279/404/269 281/407/271 282/408/272
f 280/405/270 265/409/255 278/401/268
f 282/408/272 281/407/271 283/410/273 284/411/274
f 282/408/272 265/412/255 280/405/270
f 284/411/274 283/410/273 285/413/275 286/414/276
f 284/411/274 265/415/255 282/408/272
f 286/414/276 285/413/275 287/416/277 288/417/278
f 286/414/276 265/418/255 284/411/274
f 288/417/278 287/416/277 289/419/279 290/420/280
f 288/417/278 265/421/255 286/414/276
f 290/420/280 289/419/279 291/422/281 292/423/282
f 290/420/280 265/424/255 288/417/278
f 292/423/282 291/422/281 293/425/283 266/378/256
f 292/423/282 265/426/255 290/420/280
f 266/378/256 293/425/283 262/374/252 261/373/251
f 266/378/256 265/406/255 292/423/282
f 262/374/252 294/427/284 295/428/285 263/375/253
f 263/380/253 295/429/285 296/430/286 267/381/257
f 267/381/257 296/430/286 297/431/287 269/384/259
f 269/384/259 297/431/287 298/432/288 271/388/261
f 271/388/261 298/432/288 299/433/289 273/392/263
f 273/392/263 299/433/289 300/434/290 275/396/265
f 275/396/265 300/434/290 301/435/291 277/400/267
f 277/400/267 301/435/291 302/436/292 279/404/269
f 279/404/269 302/436/292 303/437/293 281/407/271
f 281/407/271 303/437/293 304/438/294 283/410/273
f 283/410/273 304/438/294 305/439/295 285/413/275
f 285/413/275 305/439/295 306/440/296 287/416/277
f 287/416/277 306/440/296 307/441/297 289/419/279
f 289/419/279 307/441/297 308/442/298 291/422/281
f 291/422/281 308/442/298 309/443/299 293/425/283
f 293/425/283 309/443/299 294/427/284 262/374/252
f 294/427/284 310/444/300 311/445/301 295/428/285
f 295/429/285 311/446/301 312/447/302 296/430/286
f 296/430/286 312/447/302 313/448/303 297/431/287
f 297/431/287 313/448/303 314/449/304 298/432/288
f 298/432/288 314/449/304 315/450/305 299/433/289
f 299/433/289 315/450/305 316/451/306 300/434/290
f 300/434/290 316/451/306 317/452/307 301/435/291
f 301/435/291 317/452/307 318/453/308 302/436/292
f 302/436/292 318/453/308 319/454/309 303/437/293
f 303/437/293 319/454/309 320/455/310 304/438/294
f 304/438/294 320/455/310 321/456/311 305/439/295
f 305/439/295 321/456/311 322/457/312 306/440/296
f 306/440/296 322/457/312 323/458/313 307/441/297
f 307/441/297 323/458/313 324/459/314 308/442/298
f 308/442/298 324/459/314 325/460/315 309/443/299
f 309/443/299 325/460/315 310/444/300 294/427/284
f 310/444/300 325/460/315 324/459/314 323/458/313 322/457/312 321/456/311 320/455/310 319/454/309 318/453/308 317/452/307 316/461/306 315/462/305 314/463/304 313/464/303 312/465/302 311/445/301
o satellite_sep9.001
v 0.543407 0.113571 0.007219
v 0.539954 0.107058 0.002255
v 0.539007 0.111909 -0.001626
v 0.542894 0.116196 0.005119
v 0.543488 0.120369 0.012943
v 0.543674 0.111924 0.010182
v 0.540449 0.104014 0.007730
v 0.543656 0.111505 0.013557
v 0.540414 0.103240 0.013966
v 0.543354 0.112378 0.016830
v 0.539857 0.104854 0.020014
v 0.542815 0.114411 0.019502
v 0.538862 0.108611 0.024952
v 0.542121 0.117294 0.021168
v 0.537579 0.113937 0.028029
v 0.541378 0.120588 0.021573
v 0.536206 0.120023 0.028777
v 0.540698 0.123791 0.020655
v 0.534949 0.125942 0.027082
v 0.540185 0.126416 0.018555
v 0.534002 0.130793 0.023201
v 0.539918 0.128064 0.015592
v 0.533508 0.133837 0.017726
v 0.539936 0.128483 0.012217
v 0.533542 0.134611 0.011490
v 0.540238 0.127609 0.008944
v 0.534100 0.132997 0.005443
v 0.540777 0.125576 0.006271
v 0.535095 0.129241 0.000504
v 0.541471 0.122694 0.004606
v 0.536377 0.123914 -0.002573
v 0.542214 0.119400 0.004201
v 0.537751 0.117828 -0.003321
v 0.533657 0.101822 -0.001193
v 0.532419 0.108160 -0.006264
v 0.534302 0.097845 0.005960
v 0.534257 0.096833 0.014108
v 0.533529 0.098942 0.022009
v 0.532229 0.103850 0.028461
v 0.530553 0.110810 0.032482
v 0.528758 0.118761 0.033459
v 0.527117 0.126495 0.031244
v 0.525880 0.132833 0.026174
v 0.525234 0.136810 0.019020
v 0.525279 0.137822 0.010873
v 0.526007 0.135713 0.002971
v 0.527308 0.130805 -0.003481
v 0.528983 0.123845 -0.007502
v 0.530778 0.115894 -0.008479
v 0.525472 0.098659 -0.002601
v 0.524132 0.105519 -0.008089
v 0.526171 0.094354 0.005141
v 0.526122 0.093260 0.013960
v 0.525334 0.095542 0.022513
v 0.523926 0.100854 0.029497
v 0.522113 0.108387 0.033849
v 0.520170 0.116994 0.034906
v 0.518394 0.125365 0.032509
v 0.517054 0.132225 0.027021
v 0.516355 0.136530 0.019278
v 0.516404 0.137625 0.010459
v 0.517192 0.135342 0.001906
v 0.518600 0.130030 -0.005078
v 0.520413 0.122497 -0.009430
v 0.522356 0.113890 -0.010487
vt 0.198942 0.933464
vt 0.198942 0.889864
vt 0.226405 0.889864
vt 0.226405 0.933464
vt 0.185210 0.991520
vt 0.171478 0.933464
vt 0.171478 0.889864
vt 0.157747 0.991520
vt 0.144015 0.933464
vt 0.583430 0.933464
vt 0.583430 0.889864
vt 0.610894 0.889864
vt 0.610894 0.933464
vt 0.130283 0.991520
vt 0.116551 0.933464
vt 0.555967 0.933464
vt 0.555967 0.889864
vt 0.102820 0.991520
vt 0.089088 0.933464
vt 0.528503 0.933464
vt 0.528503 0.889864
vt 0.075356 0.991520
vt 0.061625 0.933464
vt 0.501040 0.933464
vt 0.501040 0.889864
vt 0.047893 0.991520
vt 0.034161 0.933464
vt 0.473577 0.933464
vt 0.473577 0.889864
vt 0.240137 0.991520
vt 0.446113 0.933464
vt 0.446113 0.889864
vt 0.432381 0.991520
vt 0.418650 0.933464
vt 0.418650 0.889864
vt 0.404918 0.991520
vt 0.391186 0.933464
vt 0.391186 0.889864
vt 0.377454 0.991520
vt 0.363723 0.933464
vt 0.363723 0.889864
vt 0.349991 0.991520
vt 0.336259 0.933464
vt 0.336259 0.889864
vt 0.322527 0.991520
vt 0.308796 0.933464
vt 0.308796 0.889864
vt 0.295064 0.991520
vt 0.281332 0.933464
vt 0.281332 0.889864
vt 0.267600 0.991520
vt 0.253869 0.933464
vt 0.253869 0.889864
vt 0.212674 0.991520
vt 0.198942 0.857353
vt 0.226405 0.857353
vt 0.171478 0.857353
vt 0.583430 0.857353
vt 0.610894 0.857353
vt 0.555967 0.857353
vt 0.528503 0.857353
vt 0.501040 0.857353
vt 0.473577 0.857353
vt 0.446113 0.857353
vt 0.418650 0.857353
vt 0.391186 0.857353
vt 0.363723 0.857353
vt 0.336259 0.857353
vt 0.308796 0.857353
vt 0.281332 0.857353
vt 0.253869 0.857353
vt 0.198942 0.830684
vt 0.226405 0.830684
vt 0.171478 0.830684
vt 0.583430 0.830684
vt 0.610894 0.830684
vt 0.555967 0.830684
vt 0.528503 0.830684
vt 0.501040 0.830684
vt 0.473577 0.830684
vt 0.446113 0.830684
vt 0.418650 0.830684
vt 0.391186 0.830684
vt 0.363723 0.830684
vt 0.336259 0.830684
vt 0.308796 0.830684
vt 0.281332 0.830684
vt 0.253869 0.830684
vt 0.144015 0.830684
vt 0.116551 0.830684
vt 0.089088 0.830684
vt 0.061625 0.830684
vt 0.034161 0.830684
vn 0.9723 -0.0818 -0.2188
vn 0.8211 -0.3676 -0.4367
vn 0.7795 -0.1548 -0.6070
vn 0.9499 0.0334 -0.3109
vn 0.9758 0.2163 0.0322
vn 0.9841 -0.1540 -0.0888
vn 0.8427 -0.5012 -0.1965
vn 0.9833 -0.1723 0.0591
vn 0.8412 -0.5351 0.0771
vn 0.9700 -0.1341 0.2027
vn 0.8168 -0.4643 0.3424
vn 0.9464 -0.0449 0.3198
vn 0.7731 -0.2995 0.5591
vn 0.9160 0.0815 0.3929
vn 0.7169 -0.0658 0.6941
vn 0.8834 0.2259 0.4106
vn 0.6566 0.2012 0.7269
vn 0.8536 0.3664 0.3704
vn 0.6015 0.4609 0.6525
vn 0.8311 0.4815 0.2783
vn 0.5599 0.6737 0.4823
vn 0.8194 0.5537 0.1484
vn 0.5383 0.8073 0.2421
vn 0.8202 0.5721 0.0004
vn 0.5398 0.8412 -0.0315
vn 0.8334 0.5338 -0.1432
vn 0.5642 0.7704 -0.2969
vn 0.8570 0.4447 -0.2603
vn 0.6079 0.6056 -0.5135
vn 0.8874 0.3183 -0.3334
vn 0.6641 0.3719 -0.6485
vn 0.9201 0.1738 -0.3511
vn 0.7244 0.1049 -0.6813
vn 0.5446 -0.5978 -0.5883
vn 0.4903 -0.3195 -0.8109
vn 0.5729 -0.7723 -0.2743
vn 0.5710 -0.8167 0.0833
vn 0.5390 -0.7242 0.4302
vn 0.4819 -0.5087 0.7134
vn 0.4084 -0.2032 0.8899
vn 0.3296 0.1458 0.9328
vn 0.2575 0.4853 0.8356
vn 0.2032 0.7635 0.6130
vn 0.1749 0.9381 0.2990
vn 0.1768 0.9825 -0.0587
vn 0.2088 0.8899 -0.4055
vn 0.2659 0.6745 -0.6887
vn 0.3394 0.3690 -0.8652
vn 0.4182 0.0199 -0.9081
vn -0.1218 -0.7678 -0.6291
vn -0.1779 -0.4809 -0.8585
vn -0.0926 -0.9477 -0.3054
vn -0.0947 -0.9935 0.0634
vn -0.1276 -0.8981 0.4209
vn -0.1865 -0.6760 0.7130
vn -0.2623 -0.3610 0.8949
vn -0.3435 -0.0011 0.9391
vn -0.4178 0.3489 0.8389
vn -0.4738 0.6357 0.6094
vn -0.5030 0.8157 0.2857
vn -0.5010 0.8615 -0.0830
vn -0.4680 0.7660 -0.4406
vn -0.4092 0.5439 -0.7326
vn -0.3334 0.2289 -0.9146
vn -0.2521 -0.1309 -0.9588
usemtl 材质.019
s 1
f 326/466/316 327/467/317 328/468/318 329/469/319
f 326/466/316 330/470/320 331/471/321
f 331/471/321 332/472/322 327/467/317 326/466/316
f 331/471/321 330/473/320 333/474/323
f 333/475/323 334/476/324 332/477/322 331/478/321
f 333/474/323 330/479/320 335/480/325
f 335/481/325 336/482/326 334/476/324 333/475/323
f 335/480/325 330/483/320 337/484/327
f 337/485/327 338/486/328 336/482/326 335/481/325
f 337/484/327 330/487/320 339/488/329
f 339/489/329 340/490/330 338/486/328 337/485/327
f 339/488/329 330/491/320 341/492/331
f 341/493/331 342/494/332 340/490/330 339/489/329
f 341/492/331 330/495/320 343/496/333
f 343/496/333 344/497/334 342/494/332 341/493/331
f 343/496/333 330/498/320 345/499/335
f 345/499/335 346/500/336 344/497/334 343/496/333
f 345/499/335 330/501/320 347/502/337
f 347/502/337 348/503/338 346/500/336 345/499/335
f 347/502/337 330/504/320 349/505/339
f 349/505/339 350/506/340 348/503/338 347/502/337
f 349/505/339 330/507/320 351/508/341
f 351/508/341 352/509/342 350/506/340 349/505/339
f 351/508/341 330/510/320 353/511/343
f 353/511/343 354/512/344 352/509/342 351/508/341
f 353/511/343 330/513/320 355/514/345
f 355/514/345 356/515/346 354/512/344 353/511/343
f 355/514/345 330/516/320 357/517/347
f 357/517/347 358/518/348 356/515/346 355/514/345
f 357/517/347 330/495/320 329/469/319
f 329/469/319 328/468/318 358/518/348 357/517/347
f 329/469/319 330/519/320 326/466/316
f 327/467/317 359/520/349 360/521/350 328/468/318
f 332/472/322 361/522/351 359/520/349 327/467/317
f 334/476/324 362/523/352 361/524/351 332/477/322
f 336/482/326 363/525/353 362/523/352 334/476/324
f 338/486/328 364/526/354 363/525/353 336/482/326
f 340/490/330 365/527/355 364/526/354 338/486/328
f 342/494/332 366/528/356 365/527/355 340/490/330
f 344/497/334 367/529/357 366/528/356 342/494/332
f 346/500/336 368/530/358 367/529/357 344/497/334
f 348/503/338 369/531/359 368/530/358 346/500/336
f 350/506/340 370/532/360 369/531/359 348/503/338
f 352/509/342 371/533/361 370/532/360 350/506/340
f 354/512/344 372/534/362 371/533/361 352/509/342
f 356/515/346 373/535/363 372/534/362 354/512/344
f 358/518/348 374/536/364 373/535/363 356/515/346
f 328/468/318 360/521/350 374/536/364 358/518/348
f 359/520/349 375/537/365 376/538/366 360/521/350
f 361/522/351 377/539/367 375/537/365 359/520/349
f 362/523/352 378/540/368 377/541/367 361/524/351
f 363/525/353 379/542/369 378/540/368 362/523/352
f 364/526/354 380/543/370 379/542/369 363/525/353
f 365/527/355 381/544/371 380/543/370 364/526/354
f 366/528/356 382/545/372 381/544/371 365/527/355
f 367/529/357 383/546/373 382/545/372 366/528/356
f 368/530/358 384/547/374 383/546/373 367/529/357
f 369/531/359 385/548/375 384/547/374 368/530/358
f 370/532/360 386/549/376 385/548/375 369/531/359
f 371/533/361 387/550/377 386/549/376 370/532/360
f 372/534/362 388/551/378 387/550/377 371/533/361
f 373/535/363 389/552/379 388/551/378 372/534/362
f 374/536/364 390/553/380 389/552/379 373/535/363
f 360/521/350 376/538/366 390/553/380 374/536/364
f 377/539/367 378/554/368 379/555/369 380/556/370 381/557/371 382/558/372 383/546/373 384/547/374 385/548/375 386/549/376 387/550/377 388/551/378 389/552/379 390/553/380 376/538/366 375/537/365
